<?xml version="1.0" ?>
<svg xmlns="http://www.w3.org/2000/svg" viewBox="0 0 115.92 90.09" id="alali_white" role="img">
  <defs>
    <style>
      .cls-1 {
        fill: #4cb480;
      }
      .cls-2 {
        fill: #ffffff;
      }
    </style>
    
    
    
    
  </defs>
  <g id="logo">
    <g id="mark">
      <g id="mark_teal" opacity="1">
        
        <g id="uuid-6e824dd4-24c0-41b6-b75b-ba1ff9934177" data-name="Layer 1-2">
          <path class="cls-2" d="M50.34,0l-16.07,34.45h-4.95l13.98-29.97c.63-1.37,1.63-2.49,2.86-3.26,1.22-.78,2.67-1.21,4.18-1.21Z"/>
          <path class="cls-2" d="M50.83,38.73l-3.99,8.56h-18.8c-2.2,0-3.65-2.28-2.72-4.27l2-4.29h4.95l-2,4.27h4.61l1.99-4.27h4.63l-2,4.27h4.73l1.99-4.27h4.61Z"/>
          <path class="cls-2" d="M59.57,0l-16.07,34.45h-4.63l14.12-30.27c.6-1.27,1.54-2.31,2.68-3.05,1.14-.72,2.49-1.13,3.89-1.13Z"/>
          <path class="cls-2" d="M90.88,47.29h-11.7c-1.41,0-2.69-.82-3.29-2.09l-3.02-6.46,1.5-4.29c.71,0,1.35.41,1.65,1.05l2.88,6.19c.38.8,1.18,1.32,2.08,1.32h3.26L66.54,5.06l-13.71,29.38h-4.61l14.15-30.34c1.17-2.5,3.69-4.11,6.46-4.11l22.05,47.29Z"/>
        </g>
      </g>
      <g id="mark_green" opacity="1">
        
        <path class="cls-1" d="M74.37,34.45l-1.5,4.29H27.32l2-4.29h28.16l8.01-17.18c.39-.86,1.62-.86,2.01,0l5.71,12.24h-3.39c-.77,0-1.47-.45-1.79-1.14l-.81-1.75c-.29-.62-1.16-.62-1.45,0l-3.65,7.83h12.24Z"/>
      </g>
    </g>
    <g id="arabic" opacity="1">
      
      <g>
        <g>
          <path class="cls-2" d="M0,71.08l.07-.14c.28.08.57.12.87.12.57,0,1.15-.13,1.72-.38.58-.25,1.1-.57,1.58-.94.47-.37.86-.74,1.15-1.11.29-.37.43-.67.43-.89,0-.12-.08-.26-.25-.42-.17-.15-.37-.3-.61-.45-.24-.14-.47-.26-.68-.34l.7-2.5c.28.18.51.44.71.78s.34.71.45,1.11c.1.4.15.77.15,1.12,0,.57-.05,1.15-.14,1.76s-.25,1.18-.46,1.7c-.21.52-.49.95-.84,1.28s-.77.49-1.28.49c-.34,0-.74-.06-1.22-.18-.47-.12-.93-.27-1.37-.46-.43-.18-.76-.38-.98-.57Z"/>
          <path class="cls-2" d="M45.9,64.07c-.01-.24-.04-.48-.07-.71-.04-.23-.08-.38-.15-.44l-.97,1.89c.12.01.26.11.42.27s.24.3.24.42c0,.08-.1.16-.27.22-.18.07-.31.1-.42.1-.2,0-.44-.03-.69-.08-.26-.05-.46-.18-.63-.37-.15-.19-.18-.48-.1-.87h-.15c-.04.11-.15.27-.34.52-.18.24-.41.48-.69.68-.27.2-.58.3-.9.3-.5,0-.9-.12-1.21-.38-.3-.24-.37-.63-.2-1.12h-.15c-.2.38-.37.68-.5.9-.12.22-.31.38-.54.46-.24.1-.61.14-1.13.14h-2.64c-.54,0-.97-.08-1.27-.26-.29-.19-.44-.5-.44-.97,0-.15.01-.31.04-.49l-.18-.03c-.2.68-.49,1.14-.84,1.39-.37.24-.93.35-1.67.35h-2.69c-.53,0-.95-.08-1.25-.26-.3-.19-.45-.5-.45-.97,0-.15.03-.31.05-.49l-.18-.03c-.2.68-.49,1.14-.86,1.39-.35.24-.91.35-1.66.35h-2.64c-.57,0-1.02-.07-1.36-.2-.34-.15-.6-.33-.8-.53-.2-.22-.37-.42-.5-.64-.14-.2-.27-.38-.42-.52-.16-.15-.37-.22-.61-.22-.29,0-.52.11-.69.31-.18.22-.37.46-.57.75-.19.27-.45.52-.76.73s-.75.31-1.29.31h-2.58c-.64,0-1.13-.11-1.44-.33-.31-.23-.53-.53-.63-.9-.11-.37-.16-.78-.18-1.21l-.2-6.03-.83,1.1.27,5.59c.04.83.15,1.58.33,2.23.19.65.49,1.17.91,1.55.41.37.97.56,1.67.56.03.01.07.01.1.01h2.58c.45,0,.84-.05,1.18-.14.27-.08.5-.22.65-.42-.04-.03-.07-.07-.1-.1l.2-.05c-.03.05-.07.11-.11.15.23.26.53.5.9.73.42.26.9.38,1.44.38.15,0,.33-.1.53-.3.18-.18.27-.44.3-.79-.05-.07-.11-.14-.15-.2h.16c0,.07,0,.15-.01.2.15.16.35.29.61.37.35.11.82.16,1.4.16h2.79c.49,0,.93-.16,1.31-.48.19-.15.37-.33.53-.53.18.27.37.49.56.63.37.24.91.38,1.61.38h3.03c.49,0,.93-.16,1.32-.48.18-.15.35-.33.52-.53.18.27.37.49.56.63.38.24.91.38,1.61.38h2.84c.46,0,.83-.05,1.1-.18.24-.11.48-.33.72-.64-.01,0-.04-.03-.05-.04l.12-.05s-.05.07-.07.1c.16.18.38.33.65.52.31.2.68.3,1.14.3.65,0,1.25-.34,1.8-1.03-.03-.01-.05-.04-.07-.07h.14s-.04.04-.07.07c.15.23.37.42.6.58.27.18.56.26.87.26.27,0,.49-.1.68-.31.18-.22.33-.49.45-.83.11-.34.2-.69.27-1.06.07-.35.11-.69.14-.99.03-.3.04-.52.04-.67,0-.08,0-.23-.01-.46ZM17.71,66.94c-.16,0-.35-.05-.6-.14-.24-.1-.46-.22-.65-.37-.19-.16-.29-.33-.29-.5,0-.05.04-.2.14-.42.08-.22.2-.44.34-.64.14-.19.26-.29.37-.29.1,0,.19.08.3.26.11.18.2.39.31.64.1.26.18.49.24.71.07.22.1.35.1.44,0,.2-.08.31-.26.31Z"/>
          <path class="cls-2" d="M18.62,67.85c.04.07.1.14.15.2.01-.05.01-.14.01-.2h-.16ZM15.5,67.93s.05.07.1.1c.04-.04.08-.1.11-.15l-.2.05Z"/>
          <path class="cls-2" d="M26.47,60.84l-1.16,1.16c.08.05.15.11.22.18.38.27.69.61.94.98l1.17-1.16c-.31-.46-.69-.84-1.17-1.16ZM25.5,58.75l-1.16,1.16c.46.33.84.72,1.16,1.16l1.16-1.16c-.3-.46-.69-.84-1.16-1.16ZM25.54,61.77c-.27-.35-.6-.67-.99-.93l-1.16,1.16c.46.33.86.72,1.16,1.16l1.16-1.16c-.05-.08-.11-.16-.16-.23Z"/>
          <path class="cls-2" d="M33.5,60.86l-.91.94-.23.23c.07.05.15.11.22.18.37.27.68.6.93.97l1.17-1.14c-.3-.46-.69-.86-1.17-1.17ZM32.59,61.8c-.29-.37-.61-.68-1.01-.94l-1.16,1.17c.48.33.86.71,1.16,1.14l.99-.97.18-.18c-.05-.08-.11-.15-.16-.23Z"/>
          <path class="cls-2" d="M42.79,67.48s.04.05.07.07c.03-.03.04-.05.07-.08h-.14ZM39.22,67.73s.04.04.05.04c.01-.03.04-.07.07-.1l-.12.05Z"/>
          <path class="cls-2" d="M51.39,73.79l-.65,1.06c-.36,0-.77.04-1.21.12-.45.08-.9.33-1.38.75l-.35-.25c.46-.47.96-.87,1.51-1.19s1.24-.48,2.08-.48ZM48.8,74.93c-.16-.09-.27-.19-.34-.32-.06-.12-.1-.26-.1-.42,0-.73.11-1.28.34-1.65s.52-.55.89-.55c.41,0,.74.2.99.6l-.13.25c-.07-.02-.17-.03-.28-.03-.34,0-.68.07-1.01.21-.33.14-.52.33-.58.58l.04-.23c.03.22.12.38.29.48.17.1.38.15.63.15.2,0,.44-.03.71-.09l-1.46,1.01Z"/>
          <path class="cls-2" d="M59.89,61.06c-.07-.03-.14-.05-.2-.08.05.95.08,1.73.1,2.3.03.79.04,1.35.05,1.66,0,.67-.1,1.27-.3,1.82-.2.56-.5.99-.93,1.32-.39.31-.91.48-1.54.49-.04.01-.08.01-.12.01s-.07,0-.1-.01c-.38-.01-.73-.16-1.07-.42-.35-.29-.65-.68-.88-1.16-.01-.04-.03-.07-.04-.11-.14,1.06-.41,1.92-.82,2.58-.59.97-1.37,1.46-2.39,1.46-.97,0-2.05-.44-3.28-1.31l.05-.12c.34.04.68.05,1.03.05.72,0,1.36-.1,1.93-.29.15-.19.24-.41.31-.65.1-.38.15-.79.15-1.24,0-.58-.07-1.2-.23-1.85-.16-.64-.37-1.24-.64-1.82-.26-.57-.54-1.07-.87-1.48-.15-.2-.3-.37-.45-.5-.08.11-.16.2-.26.27-.18.14-.35.19-.53.19-.27,0-.54-.11-.8-.35-.26-.23-.48-.52-.64-.86s-.24-.67-.24-.99c0-.27.08-.5.26-.71.18-.2.46-.3.87-.3.48,0,.98.24,1.48.71.5.48.97,1.12,1.39,1.89.42.79.76,1.65,1.02,2.58s.39,1.88.39,2.8c0,.38-.03.75-.08,1.12-.03.23-.07.46-.14.68.15-.08.29-.19.41-.31.82-.75,1.22-1.97,1.22-3.66,0-.15-.03-.44-.05-.86-.04-.44-.11-1.05-.19-1.86-.08-.8-.19-1.85-.33-3.12l1.07-1.41c.01.69.04,1.29.07,1.81.03.52.05,1.01.1,1.47.04.45.08.94.14,1.46.05.5.11,1.12.18,1.81.07.67.26,1.16.56,1.47.31.31.78.46,1.4.46.29,0,.6-.01.93-.04.33-.04.63-.11.87-.22.19-.1.34-.2.42-.34h0c0-.1.01-.19.01-.31,0-.46-.05-1.2-.14-2.18-.07-.68-.16-1.47-.29-2.38-.19-.11-.33-.22-.45-.33-.31-.29-.46-.59-.46-.9,0-.23.07-.5.23-.82.16-.31.35-.61.58-.9.22-.3.42-.52.61-.68l.2.11c-.24.54-.29.98-.12,1.35.18.37.61.65,1.31.86l-.78,1.84Z"/>
          <path class="cls-2" d="M69.32,74.98l-1.16,1.16c.08.05.15.11.22.16.38.29.69.63.94.99l1.16-1.16c-.3-.46-.68-.84-1.16-1.16ZM68.4,75.9c-.29-.35-.61-.67-1.01-.93l-1.16,1.16c.48.33.86.72,1.16,1.16l.99-.99.18-.16c-.05-.08-.11-.16-.16-.23Z"/>
          <path class="cls-2" d="M97.3,68.58h-3.21s-.05,0-.1-.01c-.38-.01-.73-.16-1.07-.42-.35-.29-.65-.68-.88-1.16-.01-.04-.03-.07-.04-.11-.14,1.06-.41,1.92-.82,2.58-.58.97-1.37,1.46-2.39,1.46-.97,0-2.05-.44-3.28-1.31l.07-.12c.33.04.68.05,1.02.05.72,0,1.36-.1,1.93-.29.15-.19.24-.41.31-.65.1-.38.15-.79.15-1.24,0-.58-.07-1.2-.23-1.85-.16-.64-.37-1.24-.63-1.82-.27-.57-.56-1.07-.88-1.48-.15-.2-.3-.38-.45-.52-.08.12-.16.22-.26.29-.18.14-.35.19-.53.19-.27,0-.54-.11-.8-.35-.26-.23-.48-.52-.64-.86s-.24-.67-.24-.99c0-.27.08-.5.26-.71.18-.2.46-.3.87-.3.48,0,.98.24,1.48.71.5.48.97,1.12,1.39,1.89.42.79.76,1.65,1.02,2.58s.39,1.88.39,2.8c0,.38-.03.75-.08,1.12-.03.23-.07.46-.14.68.15-.08.29-.19.41-.31.82-.75,1.22-1.97,1.22-3.66,0-.15-.03-.44-.05-.86-.04-.44-.11-1.05-.19-1.86-.08-.8-.19-1.85-.33-3.12l1.07-1.41c.01.69.04,1.29.07,1.81s.05,1.01.1,1.47c.04.45.08.94.14,1.46.05.5.11,1.12.18,1.81.07.67.26,1.16.56,1.47.31.31.78.46,1.4.46h3.25c-.12,0-.23.08-.31.23-.01.01-.01.03-.01.04.07.14.12.29.16.48.04.2.05.38.05.54,0,.15-.01.33-.05.53-.04.19-.1.35-.16.49,0,.01,0,.03.01.04.08.14.16.2.27.23Z"/>
          <path class="cls-2" d="M83.36,59.23l-.78,1.84c-.07-.03-.14-.05-.2-.08.05.95.08,1.73.1,2.3.01.79.04,1.35.05,1.66,0,.67-.11,1.27-.3,1.82-.2.56-.52.99-.94,1.32-.42.34-.97.5-1.65.5h-7.52c-.6,0-.99.03-1.17.1-.16.07-.26.14-.26.2,0,.14.11.23.31.26.22.04.48.07.79.08.31.01.63.05.93.1.31.05.57.15.79.3.2.15.31.37.31.68,0,.54-.19,1.03-.56,1.47-.37.45-.86.83-1.44,1.14-.6.33-1.24.57-1.93.75-.69.16-1.35.26-1.99.26-1.05,0-1.86-.19-2.44-.57-.58-.37-.94-.87-1.07-1.51-.14-.64-.07-1.36.2-2.15.27-.8.75-1.63,1.41-2.48l.14.04c-.86,1.59-1.12,2.69-.75,3.35.37.64,1.41.97,3.14.97.2,0,.5,0,.88-.03.38-.01.8-.04,1.24-.07.45-.04.87-.08,1.27-.14.41-.05.73-.11.98-.19.26-.07.38-.15.38-.23,0-.12-.1-.19-.31-.22-.2-.01-.45-.03-.76-.03-.31-.01-.61-.04-.91-.1-.31-.05-.56-.16-.76-.34-.22-.18-.31-.46-.31-.84,0-.29.08-.63.22-1.01.14-.38.34-.75.63-1.12.27-.35.63-.67,1.05-.9.42-.24.93-.37,1.5-.37h6.03c.29,0,.6-.01.93-.04.33-.04.61-.11.87-.22.19-.1.33-.2.41-.34h0c.01-.1.01-.19.01-.31,0-.46-.04-1.2-.14-2.18-.05-.68-.15-1.47-.27-2.38-.19-.11-.33-.22-.45-.33-.31-.29-.48-.59-.48-.9,0-.23.08-.5.24-.82.16-.31.35-.61.57-.9.23-.3.44-.52.63-.68l.2.11c-.26.54-.29.98-.12,1.35.18.37.61.65,1.31.86Z"/>
        </g>
        <g>
          <path class="cls-2" d="M115.92,64.38c-.01,1.16-.12,2.24-.34,3.25-.05.26-.16.48-.31.65-.15.19-.34.3-.54.35.01-1.2.03-2.2,0-3.05s-.05-1.59-.08-2.26c-.04-.67-.07-1.32-.08-1.96-.03-.64-.03-1.36,0-2.15l1.29-1.69c-.04,1.05-.03,2.16.01,3.35.05,1.17.07,2.33.05,3.5Z"/>
          <path class="cls-2" d="M113.33,59.23l-.76,1.84c-.07-.03-.14-.05-.2-.08.04.95.07,1.73.08,2.3.03.79.05,1.35.05,1.66,0,.67-.1,1.27-.29,1.82-.2.56-.52.99-.94,1.32-.42.34-.97.5-1.65.5h-1.97c.11-.01.2-.1.27-.23.1-.15.15-.33.19-.53.04-.2.07-.38.07-.53,0-.16-.03-.34-.07-.54-.04-.19-.1-.37-.19-.52-.08-.15-.19-.23-.31-.23h2.01c.29,0,.6-.01.93-.04.33-.04.61-.11.87-.22.19-.1.33-.2.41-.34h0c.01-.1.01-.19.01-.31,0-.46-.04-1.2-.14-2.18-.07-.68-.15-1.47-.27-2.38-.18-.1-.33-.22-.45-.33-.31-.29-.48-.59-.48-.9,0-.23.08-.5.24-.82.16-.31.35-.61.57-.9.23-.3.44-.52.63-.68l.2.11c-.26.54-.3.98-.12,1.35.18.37.6.65,1.29.86Z"/>
        </g>
        <path class="cls-1" d="M108.19,67.29c0,.15-.03.33-.07.53-.04.2-.1.38-.19.53-.07.14-.16.22-.27.23h-2.68s-.01,0-.03-.01h-.15c-.11,0-.23,0-.39.01h-2.18c-1.33,0-1.59.01-2.37,0h-2.56c-.11-.03-.19-.1-.27-.23-.01-.01-.01-.03-.01-.04-.08-.14-.14-.3-.18-.49-.04-.2-.05-.38-.05-.53,0-.16.01-.34.05-.54.04-.18.1-.34.18-.48,0-.01,0-.03.01-.04.08-.15.19-.23.31-.23h1.75c.38,0,.76-.01,1.16-.03l.73-.04h0c-.04-.1-.07-.18-.1-.27-.01-.05-.03-.11-.04-.16-.03-.07-.04-.14-.05-.2-.04-.2-.07-.38-.07-.53,0-.39.05-.82.18-1.29.04-.16.08-.33.15-.48.08-.31.2-.6.35-.88.16-.31.35-.58.59-.82.05-.08.15-.16.23-.24.31-.27.68-.41,1.09-.41.33,0,.65.11.97.34.31.22.58.53.8.93.22.38.35.83.38,1.33l-.11.1c-.24-.12-.5-.23-.8-.31-.29-.08-.61-.12-.97-.12-.22,0-.44.03-.65.1-.11.01-.23.05-.34.1-.22.08-.42.18-.6.29-.08.05-.16.1-.23.15-.22.18-.33.31-.33.44,0,.15.14.34.41.57.04.04.1.08.15.12.24.19.57.37.94.53.08.03.16.07.26.11.26.1.56.22.87.29.23.07.52.12.71.14.99.16,1.93.29,1.93.29h.91c.12,0,.23.08.31.23.1.15.15.33.19.52.04.2.07.38.07.54Z"/>
      </g>
    </g>
    <g id="english" opacity="1">
      
      <g>
        <path class="cls-1" d="M9.13,88.87l-3.7-8.61-1.35.76-3.27,7.84-.8.25.03.82h3.14l.05-.82-1.05-.25.56-1.64c.13-.01.3-.01.48-.03.28,0,.63-.01,1.09-.01s.8.01,1.09.01c.16.01.3.01.43.01l.68,1.65-1.02.25.05.82h4.37l.05-.82-.83-.25ZM5.36,86.18c-.28.03-.64.04-1.06.04-.44,0-.79-.01-1.06-.04h-.15l1.09-2.96,1.25,2.96h-.07Z"/>
        <path class="cls-2" d="M10.08,89.94l-.05-.77,1.04-.25c.01-.13.03-.34.04-.64.01-.3.03-.64.04-1.01s.02-.73.02-1.07v-2.02c0-.74,0-1.45-.03-2.14-.02-.69-.04-1.22-.07-1.58l-1.18-.16-.03-.71,3.12-.81.46.29c-.03.45-.05.88-.06,1.3-.01.42-.02.89-.02,1.42,0,.53,0,1.19,0,1.96l-.02,2.32c0,.76,0,1.39.01,1.9.01.51.03.83.05.95l1.05.25-.03.77h-4.33Z"/>
        <path class="cls-2" d="M21.55,88.47c-.08-.19-.12-.55-.12-1.11l.05-2.19c-.01-.74-.29-1.31-.86-1.76-.55-.43-1.31-.64-2.28-.64-.24.04-.52.12-.86.24-.34.12-.67.28-.99.47-.34.19-.6.4-.82.62-.21.21-.32.43-.32.64,0,.34.17.58.52.72s.79.16,1.33.05l.08-1.01c.01-.21.05-.36.12-.46.08-.08.2-.12.36-.12.39,0,.74.13,1.05.4.31.27.47.58.47.91v.55l-2.52.72c-.98.29-1.47.82-1.47,1.6,0,.27.09.55.3.86.19.3.46.56.82.76.35.21.78.31,1.27.31.6,0,1.21-.35,1.8-1.06l.16.43c.17.43.47.63.9.63.27,0,.62-.08,1.01-.24l1.07-.46v-.7l-1.06-.19ZM19.29,88.26c-.23.23-.5.34-.78.34s-.5-.09-.7-.3c-.2-.2-.29-.43-.29-.67,0-.43.24-.67.75-.74l1.02-.17v1.54Z"/>
        <path class="cls-2" d="M22.95,89.94l-.05-.77,1.04-.25c.01-.13.03-.34.04-.64.01-.3.03-.64.04-1.01s.02-.73.02-1.07v-2.02c0-.74,0-1.45-.03-2.14-.02-.69-.04-1.22-.07-1.58l-1.18-.16-.03-.71,3.12-.81.46.29c-.03.45-.05.88-.06,1.3-.01.42-.02.89-.02,1.42,0,.53,0,1.19,0,1.96l-.02,2.32c0,.76,0,1.39.01,1.9.01.51.03.83.05.95l1.05.25-.03.77h-4.33Z"/>
        <path class="cls-2" d="M27.76,89.94l-.04-.77,1.06-.25c0-.07.02-.25.03-.56.02-.31.03-.65.05-1.03v-1.19c0-.33,0-.61-.02-.86-.02-.24-.05-.51-.1-.79l-1.07-.22v-.74l2.98-.74.45.28c-.03.35-.05.69-.07,1.04s-.03.73-.03,1.17v2.04c0,.35,0,.68.02,1,.02.32.04.52.07.6l1.06.25-.04.77h-4.34ZM29.97,81.56c-.45,0-.8-.13-1.05-.4-.25-.27-.38-.58-.38-.93s.13-.67.38-.94c.25-.27.6-.4,1.05-.4s.79.13,1.03.4c.24.27.36.58.36.94s-.12.66-.36.93c-.24.27-.58.4-1.03.4Z"/>
        <path class="cls-2" d="M36.02,89.94l-.05-.81,1.02-.26c.03-.07.05-.34.07-.81s.04-1.03.04-1.67v-2.28c0-.65-.01-1.22-.04-1.69-.02-.48-.05-.75-.07-.8l-1.02-.25.05-.82h4.39l.04.82-1.02.25c-.03.07-.06.35-.08.83-.02.48-.03,1.03-.03,1.66v2.28c0,.62.01,1.17.03,1.64.02.48.05.76.08.84l1.02.26-.04.81h-4.39Z"/>
        <path class="cls-2" d="M41.31,89.94l-.05-.74.99-.28c.01-.07.03-.26.04-.57.02-.31.03-.65.04-1.02l.02-1.22c0-.33,0-.61-.03-.85-.02-.23-.05-.49-.1-.77l-1.03-.22v-.74l2.86-.74.45.28-.09.96.05.02c.66-.86,1.44-1.28,2.36-1.28.69,0,1.26.25,1.72.76s.69,1.21.69,2.12v1.65c0,.36,0,.7.02,1.01.01.32.03.52.06.6l.99.28-.05.74h-4.06l-.04-.74.89-.28c.02-.16.04-.4.05-.71.02-.32.02-.61.02-.89v-1.32c0-.6-.13-1.04-.39-1.3s-.57-.39-.92-.39c-.53,0-.98.23-1.34.68v2.34c0,.35,0,.68.02,1,.01.31.03.51.06.6l.96.28-.05.74h-4.15Z"/>
        <polygon class="cls-2" points="58.63 83.64 57.88 83.93 54.8 90 54.09 90 51.14 83.93 50.39 83.64 50.44 82.89 54.6 82.89 54.64 83.64 53.64 83.93 55.19 87.25 56.61 83.93 55.61 83.64 55.65 82.89 58.59 82.89 58.63 83.64"/>
        <path class="cls-2" d="M65.25,87.61c-.28.32-.56.55-.86.68-.29.13-.63.2-.99.2-.67,0-1.21-.23-1.61-.68-.35-.39-.55-.88-.58-1.5h4.45v-.4c0-.94-.25-1.69-.78-2.27-.54-.58-1.26-.87-2.2-.87-.63,0-1.22.16-1.78.48-.55.32-1.01.75-1.34,1.31-.35.56-.52,1.22-.52,1.96,0,.67.15,1.27.46,1.81.31.52.74.95,1.27,1.26.54.31,1.17.46,1.86.46s1.3-.16,1.85-.5c.54-.32.97-.82,1.26-1.46l-.5-.48ZM61.59,84.18c.25-.32.59-.48.97-.48s.7.13.91.43c.21.28.32.67.32,1.17v.16h-2.59c.03-.56.16-.98.39-1.27Z"/>
        <path class="cls-2" d="M69.3,90.06c-.46,0-.91-.05-1.35-.15-.44-.1-.82-.23-1.12-.39l-.08-1.89h1.07l.34,1.16c.4.24.82.36,1.26.36.32,0,.56-.07.73-.2.17-.13.25-.3.25-.51,0-.24-.09-.44-.27-.6-.18-.16-.56-.35-1.14-.57-.78-.29-1.32-.6-1.64-.94-.31-.34-.47-.77-.47-1.29,0-.66.3-1.2.89-1.62s1.37-.63,2.33-.63c.35,0,.7.03,1.06.1.35.07.64.15.88.26l.18,1.87h-1.05l-.35-1.15c-.11-.06-.24-.11-.39-.15-.16-.04-.3-.06-.43-.06-.31,0-.56.07-.76.21-.19.14-.29.32-.29.55,0,.25.12.46.35.63s.67.38,1.29.63c.7.28,1.2.59,1.5.92.3.33.45.74.45,1.22,0,.68-.3,1.22-.89,1.63-.59.41-1.37.62-2.33.62Z"/>
        <path class="cls-2" d="M78.9,88.58c-.16.47-.46.84-.88,1.11s-.9.4-1.42.4c-.76,0-1.38-.21-1.85-.64-.47-.43-.71-1.09-.71-1.96l.05-3.55h-1.13v-.5l2.82-2.21h.48l-.03,1.69h2.24v1.02h-2.25l-.03,3.37c0,.44.11.75.32.94.21.19.52.28.91.28s.74-.13,1.06-.42l.42.47Z"/>
        <path class="cls-2" d="M92.61,89.21l-.04.74h-3.98l-.05-.74.82-.28c.03-.16.04-.4.05-.72.03-.32.03-.62.03-.88l-.04-1.31c0-.63-.12-1.06-.38-1.31-.25-.25-.56-.38-.93-.38-.25,0-.5.05-.74.16-.19.09-.36.21-.48.38.04.24.07.51.07.8v1.65c.01.36.03.7.04,1.02.01.31.03.51.05.6l.84.28-.04.74h-3.83l-.05-.74.82-.28c.01-.16.03-.4.04-.71.01-.32.03-.62.03-.9l-.03-1.49c0-.56-.11-.95-.35-1.18-.23-.23-.52-.34-.87-.34-.24,0-.47.05-.7.17-.23.12-.43.28-.56.5v2.35c0,.35,0,.67.01.99.01.31.04.51.05.6l.88.28-.05.74h-4.08l-.05-.74,1.01-.28c0-.08.01-.27.03-.58.03-.31.04-.64.05-1.02v-1.21c.01-.31,0-.58-.03-.82-.01-.24-.05-.51-.09-.8l-1.02-.23v-.74l2.86-.74.46.28-.11.94.05.03c.34-.44.7-.76,1.07-.97.38-.2.76-.31,1.17-.31.63,0,1.19.24,1.68.71.15.15.28.32.36.51.7-.8,1.47-1.22,2.35-1.22.76,0,1.38.25,1.86.75.48.5.74,1.21.74,2.12l.03,1.66c0,.36,0,.7.01,1.02.01.31.03.51.07.6l.98.28Z"/>
        <path class="cls-2" d="M99.55,87.61c-.28.32-.58.55-.87.68-.29.13-.62.2-.99.2-.67,0-1.21-.23-1.61-.68-.35-.39-.55-.88-.58-1.5h4.46v-.4c0-.94-.27-1.69-.79-2.27s-1.26-.87-2.19-.87c-.64,0-1.23.16-1.78.48-.55.32-1.01.75-1.35,1.31s-.51,1.22-.51,1.96c0,.67.15,1.27.46,1.81.31.52.72.95,1.26,1.26.55.31,1.17.46,1.88.46s1.3-.16,1.84-.5c.55-.32.97-.82,1.27-1.46l-.5-.48ZM95.88,84.18c.27-.32.59-.48.98-.48s.68.13.9.43c.21.28.32.67.32,1.17v.16h-2.59c.03-.56.16-.98.39-1.27Z"/>
        <path class="cls-2" d="M100.75,89.94l-.05-.74.99-.28c.01-.07.03-.26.04-.57.02-.31.03-.65.04-1.02l.02-1.22c0-.33,0-.61-.03-.85-.02-.23-.05-.49-.1-.77l-1.03-.22v-.74l2.86-.74.45.28-.09.96.05.02c.66-.86,1.44-1.28,2.36-1.28.69,0,1.26.25,1.72.76.46.51.69,1.21.69,2.12v1.65c0,.36,0,.7.02,1.01.01.32.03.52.06.6l.99.28-.05.74h-4.06l-.04-.74.89-.28c.02-.16.04-.4.05-.71.02-.32.02-.61.02-.89v-1.32c0-.6-.13-1.04-.39-1.3s-.57-.39-.92-.39c-.53,0-.98.23-1.34.68v2.34c0,.35,0,.68.02,1,.01.31.03.51.06.6l.96.28-.05.74h-4.15Z"/>
        <path class="cls-2" d="M115.92,88.58c-.17.47-.47.84-.88,1.11-.43.27-.91.4-1.43.4-.75,0-1.37-.21-1.85-.64-.47-.43-.71-1.09-.71-1.96l.05-3.55h-1.11v-.5l2.8-2.21h.5l-.03,1.69h2.24v1.02h-2.25l-.03,3.37c0,.44.11.75.32.94.21.19.51.28.9.28s.75-.13,1.07-.42l.42.47Z"/>
      </g>
    </g>
  </g>
</svg>