<?xml version="1.0" encoding="UTF-8"?>
<svg id="Layer_2" data-name="Layer 2" xmlns="http://www.w3.org/2000/svg" viewBox="0 0 199.9999999731 200">
  <defs>
    <style>
      .cls-1 {
        fill: #fff;
      }

      .cls-2 {
        fill: #4cb480;
      }

      .cls-3 {
        fill: #034d57;
      }
    </style>
  </defs>
  <g id="Layer_1-2" data-name="Layer 1">
    <rect class="cls-3" width="199.9999999731" height="200"/>
    <g>
      <g>
        <g>
          <path class="cls-1" d="M8.7657232547,140.9796362843l.1118786953-.2216662c.4349676378.125471434.8908471813.1902983416,1.3686842258.1902983416.9023487294,0,1.8067886494-.1986631038,2.71331976-.5959893115.9075767059-.3994173982,1.7356881702-.8908471813,2.4832887977-1.4721981588.7476006275-.5855333586,1.3498635107-1.1647931455,1.8067886494-1.7440529325.4558795435-.5771685964.6838193152-1.0476864738.6838193152-1.4073712512,0-.1923895321-.132790601-.409873351-.3973262076-.6545426473-.2655812019-.2425781057-.5865789539-.4788826397-.9629932559-.7068224115-.3774598973-.2279397717-.7350534841-.4056909699-1.0748719512-.5332535945l1.0989206427-3.931438265c.4349676378.2864931076.8061539634.6984576492,1.1135589767,1.2338024342s.5416183567,1.1166957625.7005488398,1.7419617419c.1589304831.6273571699.2383957246,1.2149817191.2383957246,1.7670560287,0,.8908471813-.0742372651,1.8172446023-.2227117953,2.7771010723s-.3900070407,1.8548860325-.723551936,2.6829974968c-.3345904906.8260202738-.7747861049,1.4972924456-1.321632438,2.011725325s-1.2170729097.771649319-2.0127709202.771649319c-.5311624039,0-1.170021122-.0941035755-1.9186673448-.2864931076-.7476006275-.1902983416-1.4638333965-.4307852567-2.1486983071-.723551936-.6838193152-.2906754887-1.196161004-.5918069303-1.5359794711-.8992119436Z"/>
          <path class="cls-1" d="M81.0096916571,129.9418013792c-.0213040039-.3854325613-.0641734105-.7494304193-.1070428171-1.1135589767-.0641734105-.363997858-.1284775204-.5995181955-.2355203376-.6851263093l-1.5204262412,2.9764176732c.1927816303.0214347033.4068672646.171346927.6638223055.4283019679s.3855632607.4711713745.3855632607.6638223055c0,.1284775204-.1499122237.2569550409-.4283019679.3426938541-.2783897442.1070428171-.4926060778.1497815243-.6638223055.1497815243-.3212591508,0-.6852570088-.0427387072-1.0921242733-.1284775204-.4068672646-.0856081138-.7281264154-.2783897442-.9850814562-.5780834922-.2355203376-.2998244475-.2783897442-.7495611187-.1499122237-1.3705140175h-.2355203376c-.0641734105.171346927-.2355203376.4283019679-.535344785.8137345292-.2783897442.3854325613-.6423876021.7494304193-1.0921242734,1.07068957-.4283019679.3211284514-.9207773463.4710406751-1.4132527247.4710406751-.7922998259,0-1.4133834241-.1926509309-1.9058588025-.5995181955-.4710406751-.3854325613-.5782141916-.9850814562-.3212591508-1.7559465788h-.2355203376c-.3211284514.5995181955-.5780834922,1.07068957-.7922998259,1.4132527247-.1926509309.3426938541-.4924753784.5996488949-.8564732364.7281264154-.3855632607.1499122237-.9636467529.2140856342-1.7773812821.2140856342h-4.1542807597c-.8566039358,0-1.5204262412-.1284775204-1.9914669164-.4068672646-.4497366712-.2996937481-.6852570088-.7922998259-.6852570088-1.5202955418,0-.2355203376.0214347033-.4926060778.0641734105-.7708651226l-.2783897442-.0428694066c-.3211284514,1.07068957-.7708651226,1.798685286-1.3276446109,2.1842485467-.5780834922.3854325613-1.4561221313.5566487889-2.6338545185.5566487889h-4.2398888736c-.8351692325,0-1.4989915379-.1284775204-1.9701629125-.4068672646-.4710406751-.2996937481-.7065610127-.7922998259-.7065610127-1.5202955418,0-.2355203376.0427387072-.4926060778.0856081138-.7708651226l-.2783897442-.0428694066c-.3211284514,1.07068957-.7708651226,1.798685286-1.3490793142,2.1842485467-.5567794883.3854325613-1.434687428.5566487889-2.6124198152.5566487889h-4.1542807597c-.899342643,0-1.6060343551-.1070428171-2.1413791401-.3211284514-.535344785-.2355203376-.9422120496-.5139100817-1.2634712004-.8351692325-.3211284514-.3425631547-.5780834922-.6638223055-.7922998259-1.0063854601-.2140856342-.3212591508-.4283019679-.5996488949-.6638223055-.8137345292-.2569550409-.235651037-.5782141916-.3426938541-.9636467529-.3426938541-.4496059718,0-.8137345292.171346927-1.0921242734.4924753784-.2782590448.3426938541-.5780834922.7281264154-.899342643,1.1778630866-.2998244475.4281712685-.7066917121.8137345292-1.1991670905,1.1562976839s-1.1777323872.4924753784-2.034336323.4924753784h-4.0685419465c-1.0065161595,0-1.7773812821-.1712162276-2.2698566605-.5139100817-.4926060778-.363997858-.8351692325-.8351692325-.9850814562-1.4132527247-.171346927-.5782141916-.2569550409-1.2206017938-.2783897442-1.9058588025l-.3211284514-9.4862939067-1.306340607,1.7345118755.4283019679,8.8010368979c.0643041099,1.3062099076.2355203376,2.4840729942.5139100817,3.5118931576.2998244475,1.0278201634.770995822,1.8415546926,1.4348181274,2.4412035876.6423876021.5780834922,1.5202955418.8779079397,2.6338545185.8779079397.0428694066.0214347033.1070428171.0214347033.1499122237.0214347033h4.0685419465c.7066917121,0,1.3276446109-.0856081138,1.8629893959-.2140856342.4283019679-.1284775204.7924305253-.3426938541,1.0279508628-.6638223055-.0643041099-.0428694066-.1070428171-.1071735165-.1499122237-.1499122237l.3211284514-.0857388132c-.0427387072.0857388132-.1070428171.171346927-.1712162276.235651037.363997858.4067365652.8351692325.7922998259,1.4132527247,1.1562976839.6638223055.4068672646,1.4133834241.5995181955,2.2698566605.5995181955.2355203376,0,.5139100817-.1497815243.8351692325-.4710406751.2783897442-.2783897442.4283019679-.6852570088.4710406751-1.2420364971-.0856081138-.1070428171-.1712162276-.2140856342-.2355203376-.3211284514h.2569550409c0,.1070428171,0,.2355203376-.0214347033.3211284514.235651037.2569550409.5567794883.4497366712.9636467529.5782141916.5567794883.171346927,1.2849059037.2569550409,2.20568325.2569550409h4.3898010973c.7708651226,0,1.4561221313-.2569550409,2.0557710263-.7494304193.2996937481-.235651037.5780834922-.5140407811.8350385331-.8351692325.2783897442.4283019679.5782141916.7708651226.8780386391.9849507568.5782141916.3855632607,1.434687428.5996488949,2.5268117014.5996488949h4.7752336586c.770995822,0,1.4561221313-.2569550409,2.0772057296-.7494304193.2783897442-.235651037.5567794883-.5140407811.8137345292-.8351692325.2783897442.4283019679.5780834922.7708651226.8779079397.9849507568.5996488949.3855632607,1.434687428.5996488949,2.5268117014.5996488949h4.4755399105c.727995716,0,1.3062099076-.0856081138,1.7345118755-.2783897442.3854325613-.171346927.7494304193-.5139100817,1.1348629806-1.0063854601-.0213040039,0-.0641734105-.0428694066-.0856081138-.0643041099l.1927816303-.0856081138c-.0428694066.0427387072-.0857388132.1070428171-.1071735165.1499122237.2569550409.2782590448.5996488949.5139100817,1.0279508628.8136038298.4924753784.3212591508,1.07068957.4711713745,1.798685286.4711713745,1.0279508628,0,1.9701629125-.535344785,2.8266361488-1.6274690584-.0428694066-.0214347033-.0856081138-.0641734105-.1070428171-.1070428171l.2140856342-.0214347033c-.0427387072.0428694066-.0641734105.0856081138-.1070428171.1284775204.2355203376.363997858.5782141916.6638223055.9422120496.9207773463.4283019679.2783897442.8780386391.4068672646,1.3705140175.4068672646.4283019679,0,.7708651226-.1499122237,1.07068957-.4924753784.2783897442-.3426938541.5139100817-.7708651226.7066917121-1.3062099076.1712162276-.535344785.3211284514-1.0921242734.4281712685-1.670338465.1071735165-.5567794883.171346927-1.0921242733.2142163337-1.5631649485.0427387072-.4711713745.0641734105-.8137345292.0641734105-1.0492548667,0-.1284775204,0-.3641285574-.0214347033-.7281264154ZM36.6403786102,134.4600799969c-.2569550409,0-.5567794883-.0856081138-.9422120496-.2140856342-.3854325613-.1499122237-.7281264154-.3426938541-1.0278201634-.5782141916-.2998244475-.2569550409-.4497366712-.5139100817-.4497366712-.7922998259,0-.0856081138.0643041099-.3211284514.2140856342-.6638223055.1284775204-.3425631547.3212591508-.6852570088.535344785-1.0063854601.2142163337-.2998244475.4068672646-.4497366712.5782141916-.4497366712.1499122237,0,.2998244475.1284775204.4711713745.4068672646.1712162276.2783897442.3211284514.6209528988.4924753784,1.0063854601.1499122237.4068672646.2783897442.770995822.3854325613,1.1135589767.1070428171.3426938541.1499122237.5567794883.1499122237.6852570088,0,.3212591508-.1284775204.4924753784-.4068672646.4924753784Z"/>
          <path class="cls-1" d="M38.0750660382,135.8948981243c.0643041099.1070428171.1499122237.2140856342.2355203376.3211284514.0214347033-.0856081138.0214347033-.2140856342.0214347033-.3211284514h-.2569550409ZM33.1713548592,136.0233756448c.0428694066.0427387072.0856081138.1070428171.1499122237.1499122237.0641734105-.0643041099.1284775204-.1499122237.1712162276-.235651037l-.3211284514.0857388132Z"/>
          <path class="cls-1" d="M50.4308655003,124.8667432731l-1.8201199893,1.8201199893c.1284775204.0857388132.2355203376.171346927.3425631547.2783897442.5995181955.4283019679,1.0921242733.9636467529,1.4775568346,1.5418609446l1.8415546926-1.8202506887c-.4924753784-.727995716-1.0921242733-1.3276446109-1.8415546926-1.8201199893ZM48.9104392591,121.5690664492l-1.8201199893,1.8201199893c.727995716.5139100817,1.3276446109,1.13499368,1.8201199893,1.8201199893l1.8202506887-1.8201199893c-.4711713745-.7281264154-1.0921242733-1.3276446109-1.8202506887-1.8201199893ZM48.974743369,126.3228654045c-.4283019679-.5567794883-.9422120496-1.0492548667-1.5632956479-1.4561221313l-1.8201199893,1.8201199893c.7281264154.5140407811,1.3490793142,1.13499368,1.8201199893,1.8202506887l1.8202506887-1.8202506887c-.0856081138-.1284775204-.171346927-.2569550409-.2569550409-.363997858Z"/>
          <path class="cls-1" d="M61.5017590587,124.8881779764l-1.434687428,1.4775568346-.363997858.363997858c.1070428171.0856081138.2355203376.171346927.3425631547.2783897442.5782141916.4283019679,1.07068957.9422120496,1.4561221313,1.5204262412l1.8415546926-1.7988159854c-.4710406751-.727995716-1.0919935739-1.3490793142-1.8415546926-1.8415546926ZM60.0670716307,126.3657348111c-.4497366712-.5782141916-.9636467529-1.07068957-1.5845996518-1.4775568346l-1.8202506887,1.8415546926c.7495611187.5139100817,1.3490793142,1.1135589767,1.8202506887,1.7988159854l1.5631649485-1.5204262412.2783897442-.2783897442c-.0856081138-.1284775204-.171346927-.2355203376-.2569550409-.363997858Z"/>
          <path class="cls-1" d="M76.1274151814,135.3166839327c.0214347033.0428694066.0641734105.0856081138.1070428171.1070428171.0428694066-.0428694066.0643041099-.0856081138.1070428171-.1284775204l-.2140856342.0214347033ZM70.495577587,135.702116494c.0214347033.0214347033.0643041099.0643041099.0856081138.0643041099.0214347033-.0428694066.0643041099-.1071735165.1071735165-.1499122237l-.1927816303.0856081138Z"/>
          <path class="cls-1" d="M89.6498375808,145.2456650399l-1.0184098059,1.6708612626c-.5729862152,0-1.2097537427.0606445264-1.9103025825.1819335793-.7005488398.1233802434-1.4220095852.5186152605-2.1643822363,1.1857050512l-.557302286-.3973262076c.7214607454-.7423726511,1.5150675654-1.3676386305,2.3797748647-1.8778891287s1.9552631797-.7632845568,3.270622046-.7632845568ZM85.5751527619,147.0440889271c-.2540796538-.1380185774-.431830852-.3053138227-.5332535945-.501885736-.1003771472-.1965719132-.1505657208-.4161469227-.1505657208-.660816219,0-1.1564283833.1777511982-2.0200900872.5332535945-2.5930763024s.8249746785-.8594793228,1.4084168465-.8594793228c.6472234803,0,1.1668843361.3115873944,1.5589825673.9389445644l-.2059822708.3973262076c-.1171066717-.0313678585-.2655812019-.048097383-.4464691859-.048097383-.5405727614,0-1.0717351653.1108331-1.5913960211.3345904906-.5196608558.2216662-.8218378926.5248888322-.9075767059.9075767059l.0637813123-.3659583491c.0428694066.3492288246.1944807227.6043540737.4537883529.7632845568.2603532255.1589304831.5918069303.2383957246.9954067096.2383957246.3178609661,0,.6890472917-.048097383,1.1135589767-.1422009585l-2.2919448609,1.5913960211Z"/>
          <path class="cls-1" d="M103.0445666562,125.2093064278c-.1070428171-.0427387072-.2142163337-.0856081138-.3212591508-.1284775204.0857388132,1.4989915379.1284775204,2.7195933317.1499122237,3.6189359747.0428694066,1.2420364971.0643041099,2.1200751362.0856081138,2.6125505146,0,1.0492548667-.1497815243,1.9914669164-.4710406751,2.869374856-.3212591508.8780386391-.7922998259,1.5632956479-1.4561221313,2.0772057296-.6210835982.4924753784-1.434687428.7494304193-2.4197688843.7708651226-.0643041099.0214347033-.1284775204.0214347033-.1927816303.0214347033-.0641734105,0-.1070428171,0-.1499122237-.0214347033-.5995181955-.0214347033-1.1562976839-.2569550409-1.6916424689-.6638223055-.5567794883-.4497366712-1.0278201634-1.07068957-1.3918180214-1.8201199893-.0214347033-.0643041099-.0428694066-.1071735165-.0643041099-.171346927-.2140856342,1.6702077656-.6423876021,3.0192870798-1.2847752043,4.0686726459-.9209080457,1.5202955418-2.1628138434,2.2911606644-3.7688481985,2.2911606644-1.5204262412,0-3.2335034134-.6851263093-5.1607969193-2.0556403269l.0857388132-.1927816303c.535344785.0643041099,1.07068957.0857388132,1.6274690584.0857388132,1.1348629806,0,2.1413791401-.1499122237,3.0407217831-.4497366712.2355203376-.2998244475.3854325613-.6423876021.4924753784-1.0278201634.1499122237-.5996488949.2355203376-1.2420364971.2355203376-1.9487282091,0-.9207773463-.1070428171-1.8844240992-.363997858-2.9122442627-.2569550409-1.0065161595-.5782141916-1.9485975097-1.0063854601-2.8695055555-.4068672646-.899342643-.8566039358-1.6916424689-1.3705140175-2.334030071-.2355203376-.3212591508-.4711713745-.5782141916-.7066917121-.7922998259-.1284775204.1712162276-.2569550409.3211284514-.4068672646.4283019679-.2783897442.2140856342-.5567794883.2996937481-.8351692325.2996937481-.4281712685,0-.8564732364-.1712162276-1.263340501-.5567794883-.4068672646-.363997858-.7495611187-.8136038298-1.0065161595-1.3489486148s-.3854325613-1.0493855661-.3854325613-1.5632956479c0-.4283019679.1284775204-.7922998259.4068672646-1.1134282772.2783897442-.3212591508.7281264154-.4711713745,1.3705140175-.4711713745.7494304193,0,1.5417302451.3854325613,2.3341607704,1.1135589767.7922998259.7494304193,1.5202955418,1.7559465788,2.1841178473,2.9765483726.6638223055,1.2419057977,1.1991670905,2.5909851119,1.6060343551,4.0685419465s.6210835982,2.9551136693.6210835982,4.4112358006c0,.5996488949-.0428694066,1.1777323872-.1284775204,1.7559465788-.0428694066.363997858-.1071735165.7281264154-.2142163337,1.07068957.2355203376-.1284775204.4497366712-.2998244475.6423876021-.4924753784,1.2849059037-1.1777323872,1.9272935058-3.105025893,1.9272935058-5.7603151148,0-.2355203376-.0428694066-.6852570088-.0856081138-1.3490793142-.0643041099-.6852570088-.171346927-1.6489037617-.2998244475-2.933678966-.1284775204-1.2634712004-.2998244475-2.9122442627-.5139100817-4.9038418784l1.6916424689-2.2269872539c.0214347033,1.0921242734.0643041099,2.034336323.1070428171,2.8480708522.0428694066.8137345292.0857388132,1.5845996518.1499122237,2.3125953677.0643041099.7066917121.1284775204,1.4775568346.2140856342,2.2912913638.0857388132.7922998259.171346927,1.7559465788.2783897442,2.8480708522.1071735165,1.0492548667.4068672646,1.8201199893.8780386391,2.3127260671.4924753784.4924753784,1.2206017938.727995716,2.2055525506.727995716.4497366712,0,.9422120496-.0213040039,1.4561221313-.0641734105.5140407811-.0643041099.9850814562-.171346927,1.3705140175-.3426938541.2998244475-.1497815243.535344785-.3211284514.6638223055-.535344785v-.0213040039c0-.1284775204.0214347033-.2783897442.0214347033-.4711713745,0-.727995716-.0856081138-1.8844240992-.2140856342-3.4261543444-.1070428171-1.07068957-.2569550409-2.3127260671-.4497366712-3.7474134952-.2998244475-.171346927-.5139100817-.3426938541-.7066917121-.5139100817-.4924753784-.4497366712-.727995716-.9209080457-.727995716-1.4133834241,0-.363997858.1070428171-.7922998259.363997858-1.2847752043.2569550409-.4926060778.5567794883-.9636467529.9207773463-1.4133834241.3426938541-.4710406751.6638223055-.8137345292.9636467529-1.07068957l.3212591508.171346927c-.3855632607.8566039358-.4497366712,1.5417302451-.1927816303,2.1199444368.2783897442.5782141916.9636467529,1.0278201634,2.0557710263,1.3490793142l-1.2206017938,2.8908095594Z"/>
          <path class="cls-1" d="M117.8843084131,147.1157039065l-1.8201199893,1.8201199893c.1284775204.0857388132.2355203376.171346927.3425631547.2569550409.5995181955.4497366712,1.0921242734.9850814562,1.4775568346,1.5632956479l1.8201199893-1.8202506887c-.4710406751-.727995716-1.07068957-1.3276446109-1.8201199893-1.8201199893ZM116.4281862817,148.5718260378c-.4497366712-.5567794883-.9636467529-1.0492548667-1.5845996518-1.4561221313l-1.8202506887,1.8201199893c.7495611187.5139100817,1.3490793142,1.13499368,1.8202506887,1.8202506887l1.5631649485-1.5632956479.2783897442-.2569550409c-.0856081138-.1284775204-.171346927-.2569550409-.2569550409-.363997858Z"/>
          <path class="cls-1" d="M161.9286481355,137.0458329836h-5.0536234027c-.0428694066,0-.0856081138,0-.1499122237-.0214347033-.5995181955-.0214347033-1.1562976839-.2569550409-1.6916424689-.6638223055-.5567794883-.4497366712-1.0279508628-1.07068957-1.3919487208-1.8201199893-.0214347033-.0643041099-.0427387072-.1071735165-.0641734105-.171346927-.2142163337,1.6702077656-.6425183016,3.0192870798-1.2849059037,4.0686726459-.9207773463,1.5202955418-2.1628138434,2.2911606644-3.7688481985,2.2911606644-1.5202955418,0-3.233372714-.6851263093-5.1606662199-2.0556403269l.1070428171-.1927816303c.5139100817.0643041099,1.07068957.0857388132,1.6060343551.0857388132,1.13499368,0,2.1413791401-.1499122237,3.0407217831-.4497366712.235651037-.2998244475.3855632607-.6423876021.4926060778-1.0278201634.1499122237-.5996488949.2355203376-1.2420364971.2355203376-1.9487282091,0-.9207773463-.1070428171-1.8844240992-.363997858-2.9122442627-.2569550409-1.0065161595-.5782141916-1.9485975097-.9850814562-2.8695055555-.4283019679-.899342643-.8779079397-1.6916424689-1.3918180214-2.334030071-.235651037-.3212591508-.4711713745-.5996488949-.7066917121-.8137345292-.1284775204.1926509309-.2569550409.3425631547-.4068672646.4497366712-.2783897442.2140856342-.5567794883.2996937481-.8351692325.2996937481-.4283019679,0-.8566039358-.1712162276-1.263340501-.5567794883-.4068672646-.363997858-.7495611187-.8136038298-1.0065161595-1.3489486148s-.3854325613-1.0493855661-.3854325613-1.5632956479c0-.4283019679.1284775204-.7922998259.4068672646-1.1134282772.2783897442-.3212591508.727995716-.4711713745,1.3705140175-.4711713745.7494304193,0,1.5417302451.3854325613,2.334030071,1.1135589767.7922998259.7494304193,1.5204262412,1.7559465788,2.1842485467,2.9765483726.6638223055,1.2419057977,1.1991670905,2.5909851119,1.6060343551,4.0685419465s.6209528988,2.9551136693.6209528988,4.4112358006c0,.5996488949-.0427387072,1.1777323872-.1284775204,1.7559465788-.0427387072.363997858-.1070428171.7281264154-.2140856342,1.07068957.2355203376-.1284775204.4496059718-.2998244475.6423876021-.4924753784,1.2847752043-1.1777323872,1.9272935058-3.105025893,1.9272935058-5.7603151148,0-.2355203376-.0428694066-.6852570088-.0857388132-1.3490793142-.0641734105-.6852570088-.1712162276-1.6489037617-.2998244475-2.933678966-.1284775204-1.2634712004-.2996937481-2.9122442627-.5139100817-4.9038418784l1.6917731683-2.2269872539c.0214347033,1.0921242734.0641734105,2.034336323.1070428171,2.8480708522s.0856081138,1.5845996518.1499122237,2.3125953677c.0641734105.7066917121.1284775204,1.4775568346.2140856342,2.2912913638.0857388132.7922998259.171346927,1.7559465788.2783897442,2.8480708522.1070428171,1.0492548667.4068672646,1.8201199893.8780386391,2.3127260671.4924753784.4924753784,1.2204710944.727995716,2.2055525506.727995716h5.1179275127c-.1927816303,0-.363997858.1284775204-.4926060778.3641285574-.0213040039.0213040039-.0213040039.0427387072-.0213040039.0641734105.1070428171.2142163337.1926509309.4497366712.2569550409.7495611187.0641734105.3211284514.0856081138.5995181955.0856081138.8564732364,0,.2355203376-.0214347033.5139100817-.0856081138.8351692325-.0643041099.2998244475-.1499122237.5567794883-.2569550409.7708651226,0,.0214347033,0,.0428694066.0213040039.0643041099.1286082198.2140856342.2570857403.3211284514.4283019679.363997858Z"/>
          <path class="cls-1" d="M139.9833568227,122.3184968684l-1.2206017938,2.8908095594c-.1070428171-.0427387072-.2140856342-.0856081138-.3212591508-.1284775204.0857388132,1.4989915379.1284775204,2.7195933317.1499122237,3.6189359747.0214347033,1.2420364971.0643041099,2.1200751362.0857388132,2.6125505146,0,1.0492548667-.171346927,1.9914669164-.4711713745,2.869374856-.3212591508.8780386391-.8137345292,1.5632956479-1.4775568346,2.0772057296-.6638223055.535344785-1.5204262412.7922998259-2.5911158113.7922998259h-11.841758681c-.9422120496,0-1.5631649485.0428694066-1.8415546926.1499122237-.2569550409.1070428171-.4068672646.2140856342-.4068672646.3211284514,0,.2142163337.1712162276.3641285574.4924753784.4068672646.3426938541.0643041099.7494304193.1071735165,1.2420364971.1284775204.4924753784.0214347033.9849507568.0857388132,1.4561221313.1499122237.4924753784.0857388132.899342643.235651037,1.2420364971.4711713745.3211284514.2355203376.4924753784.5780834922.4924753784,1.07068957,0,.8564732364-.2998244475,1.6274690584-.8779079397,2.3127260671-.5782141916.7065610127-1.3490793142,1.3062099076-2.2699873599,1.798685286-.9420813502.5139100817-1.9485975097.899342643-3.0407217831,1.1777323872-1.0921242734.2569550409-2.1199444368.4068672646-3.1263298969.4068672646-1.6489037617,0-2.9338096654-.2998244475-3.8331523084-.899342643-.9207773463-.5782141916-1.4775568346-1.3705140175-1.6916424689-2.3768994776-.2142163337-1.0065161595-.1070428171-2.1413791401.3211284514-3.3834156372.4283019679-1.2634712004,1.1778630866-2.569681108,2.2271179533-3.8973257189l.2140856342.0643041099c-1.3490793142,2.5053769981-1.7559465788,4.2398888736-1.1777323872,5.267709037.5782141916,1.0065161595,2.2269872539,1.5204262412,4.9465805856,1.5204262412.3212591508,0,.7922998259,0,1.3919487208-.0428694066.5995181955-.0214347033,1.263340501-.0641734105,1.9485975097-.1070428171.7066917121-.0641734105,1.3705140175-.1284775204,1.9914669164-.2140856342.6423876021-.0857388132,1.1564283833-.171346927,1.5418609446-.2998244475.4068672646-.1070428171.5995181955-.2355203376.5995181955-.363997858,0-.1927816303-.1499122237-.2998244475-.4924753784-.3426938541-.3212591508-.0214347033-.7066917121-.0428694066-1.1991670905-.0428694066-.4924753784-.0213040039-.9636467529-.0641734105-1.434687428-.1497815243-.4926060778-.0857388132-.8780386391-.2569550409-1.1991670905-.535344785-.3426938541-.2783897442-.4926060778-.7281264154-.4926060778-1.3276446109,0-.4497366712.1284775204-.9850814562.3426938541-1.5847303512.2140856342-.5995181955.535344785-1.1777323872.9849507568-1.7559465788.4283019679-.5566487889.9850814562-1.0492548667,1.6489037617-1.4132527247.6638223055-.3854325613,1.4561221313-.5782141916,2.3554647743-.5782141916h9.4862939067c.4497366712,0,.9422120496-.0213040039,1.4562528307-.0641734105.5139100817-.0643041099.9635160535-.171346927,1.3703833181-.3426938541.2998244475-.1497815243.5140407811-.3211284514.6425183016-.535344785v-.0213040039c.0213040039-.1284775204.0213040039-.2783897442.0213040039-.4711713745,0-.727995716-.0641734105-1.8844240992-.2140856342-3.4261543444-.0856081138-1.07068957-.2355203376-2.3127260671-.4283019679-3.7474134952-.2998244475-.171346927-.5139100817-.3426938541-.7066917121-.5139100817-.4924753784-.4497366712-.7494304193-.9209080457-.7494304193-1.4133834241,0-.363997858.1284775204-.7922998259.3854325613-1.2847752043.2569550409-.4926060778.5567794883-.9636467529.899342643-1.4133834241.3641285574-.4710406751.6852570088-.8137345292.9850814562-1.07068957l.3212591508.171346927c-.4068672646.8566039358-.4497366712,1.5417302451-.1927816303,2.1199444368.2783897442.5782141916.9636467529,1.0278201634,2.0557710263,1.3490793142Z"/>
        </g>
        <g>
          <path class="cls-1" d="M191.2265439611,130.4342767576c-.0214347033,1.8202506887-.1927816303,3.5333278609-.535344785,5.1179275127-.0856081138.4068672646-.2569550409.7495611187-.4924753784,1.0278201634-.235651037.2998244475-.535344785.4711713745-.8566039358.5567794883.0214347033-1.8844240992.0428694066-3.469023751,0-4.7966683619s-.0856081138-2.5053769981-.1284775204-3.5546318648c-.0643041099-1.0492548667-.1070428171-2.0772057296-.1284775204-3.0835911897-.0428694066-1.0065161595-.0428694066-2.1413791401,0-3.3834156372l2.034336323-2.6552892218c-.0643041099,1.6489037617-.0428694066,3.4047196411.0214347033,5.2678397364.0856081138,1.8415546926.1070428171,3.6616746819.0856081138,5.5032293745Z"/>
          <path class="cls-1" d="M187.1578713151,122.3184968684l-1.1991670905,2.8908095594c-.1070428171-.0427387072-.2140856342-.0856081138-.3211284514-.1284775204.0641734105,1.4989915379.1070428171,2.7195933317.1284775204,3.6189359747.0427387072,1.2420364971.0856081138,2.1200751362.0856081138,2.6125505146,0,1.0492548667-.1499122237,1.9914669164-.4497366712,2.869374856-.3211284514.8780386391-.8136038298,1.5632956479-1.4775568346,2.0772057296-.6638223055.535344785-1.5202955418.7922998259-2.5909851119.7922998259h-3.105025893c.171346927-.0214347033.3212591508-.1499122237.4283019679-.363997858.1499122237-.235651037.2355203376-.5139100817.2998244475-.8351692325.0641734105-.3212591508.1070428171-.5996488949.1070428171-.8351692325,0-.2569550409-.0428694066-.535344785-.1070428171-.8564732364-.0643041099-.2998244475-.1499122237-.5782141916-.2998244475-.8137345292-.1284775204-.235651037-.2998244475-.3641285574-.4924753784-.3641285574h3.1691993035c.4496059718,0,.9422120496-.0213040039,1.4561221313-.0641734105.5139100817-.0643041099.9636467529-.171346927,1.3705140175-.3426938541.2996937481-.1497815243.5139100817-.3211284514.6423876021-.535344785v-.0213040039c.0214347033-.1284775204.0214347033-.2783897442.0214347033-.4711713745,0-.727995716-.0643041099-1.8844240992-.2142163337-3.4261543444-.1070428171-1.07068957-.2355203376-2.3127260671-.4281712685-3.7474134952-.2783897442-.1499122237-.5140407811-.3426938541-.7066917121-.5139100817-.4924753784-.4497366712-.7495611187-.9209080457-.7495611187-1.4133834241,0-.363997858.1284775204-.7922998259.3855632607-1.2847752043.2569550409-.4926060778.5566487889-.9636467529.899342643-1.4133834241.363997858-.4710406751.6852570088-.8137345292.9849507568-1.07068957l.3212591508.171346927c-.4068672646.8566039358-.4710406751,1.5417302451-.1926509309,2.1199444368.2782590448.5782141916.9420813502,1.0278201634,2.0342056236,1.3490793142Z"/>
        </g>
        <path class="cls-2" d="M179.0635261293,135.0168594852c0,.2355203376-.0428694066.5139100817-.1070428171.8351692325-.0643041099.3212591508-.1499122237.5995181955-.2998244475.8351692325-.1070428171.2140856342-.2569550409.3425631547-.4283019679.363997858h-4.1971501664l-.0213040039-.0214347033s-.0214347033.0214347033-.0428694066,0h-.2355203376c-.171346927,0-.3641285574,0-.6210835982.0214347033h-3.4261543444c-2.0985097335,0-2.5053769981.0214347033-3.7259787918,0h-4.0258032393c-.171346927-.0428694066-.2998244475-.1499122237-.4283019679-.363997858-.0214347033-.0214347033-.0214347033-.0428694066-.0214347033-.0643041099-.1284775204-.2140856342-.2140856342-.4710406751-.2783897442-.7708651226-.0641734105-.3212591508-.0856081138-.5996488949-.0856081138-.8351692325,0-.2569550409.0214347033-.535344785.0856081138-.8564732364.0643041099-.2783897442.1499122237-.535344785.2783897442-.7495611187,0-.0214347033,0-.0428694066.0214347033-.0641734105.1284775204-.235651037.2998244475-.3641285574.4924753784-.3641285574h2.7624627383c.5995181955,0,1.1991670905-.0213040039,1.8201199893-.0427387072l1.1562976839-.0643041099v-.0214347033c-.0641734105-.1284775204-.1070428171-.2569550409-.1497815243-.4068672646-.0214347033-.0856081138-.0428694066-.1712162276-.0643041099-.2569550409-.0428694066-.1070428171-.0641734105-.2140856342-.0856081138-.3211284514-.0643041099-.3212591508-.1071735165-.5996488949-.1071735165-.8351692325,0-.6209528988.0857388132-1.2847752043.2783897442-2.034336323.0643041099-.2569550409.1284775204-.5139100817.235651037-.7494304193.1284775204-.4926060778.3211284514-.9422120496.5566487889-1.3919487208.2570857403-.4924753784.5567794883-.9207773463.9209080457-1.2847752043.0856081138-.1284775204.2355203376-.2569550409.363997858-.3854325613.4924753784-.4283019679,1.07068957-.6425183016,1.7130771722-.6425183016.5139100817,0,1.0278201634.171346927,1.5204262412.535344785.4924753784.3426938541.9207773463.8351692325,1.263340501,1.4562528307.3426938541.5995181955.5567794883,1.3062099076.5996488949,2.0985097335l-.171346927.1499122237c-.3854325613-.1927816303-.7922998259-.3641285574-1.263340501-.4926060778-.4497366712-.1284775204-.9636467529-.1926509309-1.5204262412-.1926509309-.3426938541,0-.6852570088.0428694066-1.0278201634.1499122237-.171346927.0214347033-.3641285574.0856081138-.535344785.1499122237-.3426938541.1284775204-.6638223055.2783897442-.9422120496.4496059718-.1284775204.0857388132-.2569550409.1499122237-.3641285574.2355203376-.3425631547.2783897442-.5139100817.4926060778-.5139100817.6852570088,0,.235651037.2142163337.535344785.6423876021.8994733424.0643041099.0641734105.1499122237.1284775204.235651037.1926509309.3854325613.2998244475.899342643.5782141916,1.4775568346.8351692325.1284775204.0428694066.2569550409.1070428171.4068672646.171346927.4067365652.1499122237.8779079397.3425631547,1.3703833181.4496059718.3641285574.1071735165.8137345292.1927816303,1.1135589767.2142163337,1.5631649485.2569550409,3.0407217831.4496059718,3.0407217831.4496059718h1.4348181274c.1926509309,0,.363997858.1284775204.4924753784.3641285574.1499122237.2355203376.2355203376.5139100817.2998244475.8137345292.0641734105.3211284514.1070428171.5995181955.1070428171.8564732364Z"/>
      </g>
      <g>
        <path class="cls-2" d="M23.1378139926,168.98595113l-5.8248348032-13.5491170635-2.1315649342,1.2029662147-5.1494785698,12.3461508488-1.2662124307.4009887382.042121207,1.2873374397h4.9384861017l.084371225-1.2873374397-1.6460761599-.4009887382.8863487015-2.5748036904c.2109924681-.021125009.4643637653-.021125009.7597274584-.042250018.4432387563,0,.9919737466-.020996198,1.7094511869-.020996198.6964812424,0,1.2663412417.020996198,1.7094511869.020996198.2532424861.021125009.4643637653.021125009.6753562334.021125009l1.0763449716,2.5959286995-1.6039549529.4009887382.0845000361,1.2873374397h6.8799259548l.0845000361-1.2873374397-1.3084624487-.4009887382ZM17.2074829554,164.7439462706c-.4432387563.042121207-1.0130987556.063246216-1.6673299799.063246216-.6963524314,0-1.2450874217-.021125009-1.6672011689-.063246216h-.2321174771l1.7094511869-4.6641186066,1.9626936731,4.6641186066h-.105496234Z"/>
        <path class="cls-1" d="M24.6290592937,170.6655263354l-.0783171066-1.2077322228,1.6312628914-.3936465095c.0206097649-.197853743.042250018-.5358538872.0628597829-1.0098784798.0206097649-.4760855691.042250018-1.0078175033.0628597829-1.5931348263s.0319451356-1.1459029281.0319451356-1.6776348624v-3.1842086761c0-1.16239074-.0133963472-2.2856229268-.0401890415-3.3738185132-.0257622061-1.0861346099-.0649207594-1.9187691116-.1174756599-2.4937815522l-1.8507568875-.2514391317-.0474024593-1.1129273043,4.910276486-1.2695615175.7213417713.4534148277c-.042250018.7007320064-.0731646654,1.3808542479-.0937744303,2.0403667245-.0216402531.6574515001-.0340061121,1.4055859658-.0391585533,2.2423424205-.0061829295.8367564547-.008243906,1.8672446994-.008243906,3.0894037576l-.0309146473,3.6561722922c0,1.1912444109.0072134177,2.1908180083.0226707414,2.9945988391.0164878119.8058418074.0401890415,1.3025371413.0711036889,1.4900860018l1.646720215.3936465095-.046371971,1.2077322228h-6.8084358328Z"/>
        <path class="cls-1" d="M42.6805083094,168.3527161036c-.1266212431-.2953636931-.1899962701-.8652236925-.1899962701-1.7515723939l.084371225-3.4400273829c-.020996198-1.1607161966-.4642349542-2.0683187182-1.3505836557-2.7646711495-.8653525035-.6753562334-2.0683187182-1.0130987556-3.587773635-1.0130987556-.3798637292.063375027-.8231024855.1899962701-1.3507124668.3798637292-.5276099813.1899962701-1.0552199626.4432387563-1.5617049349.7387312604-.5276099813.2954925042-.9497237285.6331062153-1.2873374397.9708487375-.3377425222.3376137112-.5066137833.6752274223-.5066137833,1.0129699445,0,.5276099813.2743674952.9074737105.8231024855,1.1395911876s1.2452162327.2532424861,2.0893149161.0845000361l.1266212431-1.5828299439c.021125009-.3377425222.0845000361-.5698599993.1899962701-.7176062514.1266212431-.1266212431.3166175132-.1899962701.5698599993-.1899962701.6119812063,0,1.1607161966.2111212791,1.6460761599.6332350264.4854887743.4219849362.7387312604.9074737105.7387312604,1.4350836918v.8652236925l-3.9676373642,1.1397199986c-1.5407087369.4642349542-2.3215612043,1.2873374397-2.3215612043,2.5114286634,0,.4219849362.1477462521.8652236925.4643637653,1.3505836557.2954925042.4643637653.7174774404.8864775125,1.2873374397,1.2029662147.5487349903.3377425222,1.2240912237.4853599633,2.0049436911.4853599633.9497237285,0,1.899318646-.5486061793,2.8279173655-1.6672011689l.2532424861.6753562334c.2743674952.6753562334.7387312604.9918449355,1.4140874938.9918449355.4221137472,0,.9707199265-.1266212431,1.5828299439-.3798637292l1.6883261779-.7174774404v-1.0974699806l-1.6672011689-.2954925042ZM39.1348558814,168.0151023924c-.3587387202.3587387202-.7808524674.5276099813-1.2239624126.5276099813-.4221137472,0-.7808524674-.1477462521-1.0974699806-.4643637653-.3166175132-.3164887022-.4642349542-.6752274223-.4642349542-1.0552199626,0-.6752274223.3798637292-1.0552199626,1.1818412056-1.1607161966l1.6038261419-.2743674951v2.4270574383Z"/>
        <path class="cls-1" d="M44.8956716024,170.6655263354l-.0783171066-1.2077322228,1.6312628914-.3936465095c.0206097649-.197853743.042250018-.5358538872.0628597829-1.0098784798.0206097649-.4760855691.042250018-1.0078175033.0628597829-1.5931348263s.0319451356-1.1459029281.0319451356-1.6776348624v-3.1842086761c0-1.16239074-.0133963472-2.2856229268-.0401890415-3.3738185132-.0257622061-1.0861346099-.0649207594-1.9187691116-.1174756599-2.4937815522l-1.8507568875-.2514391317-.0474024593-1.1129273043,4.910276486-1.2695615175.7213417713.4534148277c-.042250018.7007320064-.0731646654,1.3808542479-.0937744303,2.0403667245-.0216402531.6574515001-.0340061121,1.4055859658-.0391585533,2.2423424205-.0061829295.8367564547-.008243906,1.8672446994-.008243906,3.0894037576l-.0309146473,3.6561722922c0,1.1912444109.0072134177,2.1908180083.0226707414,2.9945988391.0164878119.8058418074.0401890415,1.3025371413.0711036889,1.4900860018l1.646720215.3936465095-.046371971,1.2077322228h-6.8084358328Z"/>
        <path class="cls-1" d="M52.4563638539,170.6655263354l-.0628597829-1.2077322228,1.663208027-.3936465095c.0103048824-.1030488245.0288536709-.3998294389.0535853887-.8862198905.0267926944-.4863904515.0494634357-1.0263662917.0721341771-1.6219884972l.0144268354-1.8672446994c0-.5131831459-.0144268354-.9624760206-.0453414828-1.3499396006-.0329756238-.3854026035-.0845000361-.7996588779-.1576647014-1.2386468701l-1.6786653506-.3441830737v-1.1603297635l4.6887215134-1.16239074.7089759124.4389879922c-.0453414828.5440977932-.0783171066,1.0881955864-.1112927304,1.6322933796s-.0453414828,1.1562078106-.0453414828,1.8342690756v3.2171843c0,.5440977932.0123658589,1.065524845.0370975768,1.5684031084.0247317179.5008172869.0618292947.8161466898.1030488245.9398052792l1.6611470505.3936465095-.0618292947,1.2077322228h-6.8393504801ZM55.9404446092,157.4732158267c-.7007320064,0-1.2530737056-.2122805784-1.6487811915-.6347807587-.3977684625-.4245611568-.5956222054-.9130125848-.5956222054-1.4674152605,0-.5647075581.197853743-1.0552199626.5956222054-1.4735981899.395707486-.4183782274.9480491851-.6285978293,1.6487811915-.6285978293s1.2365858937.2102196019,1.6158055677.6285978293c.3750977211.4183782274.5647075581.9088906318.5647075581,1.4735981899,0,.5544026757-.189609837,1.0428541036-.5647075581,1.4674152605-.3792196741.4225001803-.9150735613.6347807587-1.6158055677.6347807587Z"/>
        <path class="cls-1" d="M65.4600950139,170.6655263354l-.0783171066-1.271622494,1.5993177558-.4080733449c.0412195298-.1030488245.0803780831-.5296709578.1174756599-1.2778054234s.0556463652-1.6240494737.0556463652-2.627745024v-3.5922820211c0-1.0243053152-.0185487884-1.9125861822-.0556463652-2.6648426008-.0370975768-.7543173951-.0762561301-1.1726956225-.1174756599-1.2551346821l-1.5993177558-.3936465095.0783171066-1.2860493294h6.9166370985l.0638902712,1.2860493294-1.6013787323.3936465095c-.0515244122.1154146834-.092743942.5482197462-.1257195659,1.3004761648-.0309146473.7543173951-.0474024593,1.6261104501-.0474024593,2.619501118v3.5922820211c0,.972780903.0164878119,1.8342690756.0474024593,2.5803425647.0329756238.7481344657.0741951536,1.1912444109.1257195659,1.3252078827l1.6013787323.4080733449-.0638902712,1.271622494h-6.9166370985Z"/>
        <path class="cls-1" d="M73.7905619841,170.6655263354l-.0783171066-1.1603297635,1.5519152965-.4410489687c.0206097649-.1133537069.0453414828-.4142562744.0700732006-.9006467259.0267926944-.4863904515.0453414828-1.0222443387.0556463652-1.6075616617l.0309146473-1.9146471587c0-.5214270518-.0144268354-.9665979735-.0474024593-1.3334517887-.0309146473-.3647928386-.0824390596-.7687442306-.1566342132-1.2077322228l-1.6158055677-.3441830737v-1.1603297635l4.5032336294-1.16239074.7048539594.4389879922-.1401464013,1.5065738138.0783171066.0309146473c1.0346101977-1.3478786241,2.2732570678-2.0218179361,3.7180015869-2.0218179361,1.0861346099,0,1.9909032888.395707486,2.7122450601,1.1912444109s1.0820126569,1.9084642292,1.0820126569,3.3408428893v2.6030133061c0,.5647075581.0103048824,1.0964394924.0329756238,1.5931348263.0206097649.4966953339.0515244122.8140857133.092743942.9480491851l1.553976273.4410489687-.0783171066,1.1603297635h-6.3849051642l-.0618292947-1.1603297635,1.3952810833-.4410489687c.0309146473-.2493781552.0597683182-.6244758763.0865610126-1.1211712102.0247317179-.4966953339.0391585533-.964536997.0391585533-1.4035249893v-2.0712813719c0-.9501101616-.2060976489-1.6322933796-.6203539233-2.046549654-.4121952979-.4121952979-.8965247729-.6182929468-1.4509274485-.6182929468-.8367564547,0-1.5374884611.3544879562-2.1021960192,1.065524845v3.6870869396c0,.5544026757.0103048824,1.0758297275.0329756238,1.5684031084.0206097649.4905124045.0515244122.8058418074.092743942.9398052792l1.5065738138.4410489687-.0783171066,1.1603297635h-6.5250515655Z"/>
        <polygon class="cls-1" points="101.0552199626 160.7551838974 99.8733787569 161.1984226537 95.0193926913 170.7586485329 93.9007977016 170.7586485329 89.2578041041 161.1984226537 88.0759628984 160.7551838974 88.1604629345 159.5733426918 94.7027751781 159.5733426918 94.7661502051 160.7551838974 93.2044452703 161.1984226537 95.6313738976 166.4322724485 97.8684350658 161.1984226537 96.306730131 160.7551838974 96.370105158 159.5733426918 100.9918449355 159.5733426918 101.0552199626 160.7551838974"/>
        <path class="cls-1" d="M111.4807983453,167.0021324479c-.4432387563.5064849723-.8863487015.8652236925-1.3507124668,1.0762161606-.4642349542.2111212791-.9918449355.3166175132-1.5617049349.3166175132-1.0552199626,0-1.8994474571-.3587387202-2.5325536724-1.0763449716-.5487349903-.6119812063-.8652236925-1.3928336738-.9074737105-2.3636824113h7.0066760089v-.6331062153c0-1.4773337098-.4009887382-2.6591749155-1.2240912237-3.566648626-.8440986834-.9074737105-1.9838186821-1.3718374758-3.4610235809-1.3718374758-.9919737466,0-1.9205724661.2532424861-2.8069211676.7598562694-.8653525035.5064849723-1.5828299439,1.1818412057-2.1104399252,2.0681899071-.5487349903.8863487015-.8231024855,1.920443655-.8231024855,3.0812886627,0,1.0552199626.2321174771,2.0048148801.7176062514,2.8490423746.4853599633.8231024855,1.1607161966,1.4984587188,2.0048148801,1.9838186821.8442274945.4853599633,1.83607243.7174774404,2.9335424106.7174774404,1.0763449716,0,2.0471937091-.2532424861,2.9124174016-.7808524674.8442274945-.5064849723,1.5195837278-1.2873374397,1.9838186821-2.3003073843l-.7808524674-.7597274584ZM105.7193385692,161.5994113919c.4009887382-.5066137833.9285987195-.7598562694,1.5194549168-.7598562694.6119812063,0,1.0974699806.2111212791,1.4350836918.6753562334.3377425222.4432387563.5064849723,1.0552199626.5064849723,1.83607243v.2532424861h-4.0731335982c.042250018-.8863487015.2532424861-1.5405799258.6121100174-2.0048148801Z"/>
        <path class="cls-1" d="M117.8501173748,170.853075196c-.7213417713,0-1.4303176837-.0783171066-2.1248667606-.2349513198-.6966100534-.1566342132-1.2839883529-.3606708856-1.7662568514-.6121100174l-.1257195659-2.9801720037h1.6796958389l.5337929108,1.8198422402c.6265368528.3771586976,1.2860493294.5647075581,1.9764764534.5647075581.5008172869,0,.8820979375-.1030488245,1.1438419516-.3070854969.2617440142-.201975696.391585533-.4719636161.391585533-.8058418074,0-.3771586976-.1422073778-.6945490769-.4307440863-.9501101616-.286475732-.2555610847-.8862198904-.5564636521-1.7951105223-.9027077024-1.2242200347-.4492928747-2.0815862543-.9418662557-2.5741596353-1.4818420959-.4905124045-.5379148637-.7357686067-1.2159761288-.7357686067-2.0300618421,0-1.0366711742.4678416631-1.8857934878,1.4035249893-2.5494279174s2.1557814079-.9954516444,3.6623552217-.9954516444c.5544026757,0,1.1088053513.0515244122,1.663208027.1566342132.5544026757.1030488245,1.0140004328.2390732728,1.3808542479.4060123684l.2823537791,2.9492573564h-1.6487811915l-.5482197462-1.8033544282c-.1669390956-.0948049185-.3730367446-.1731220251-.6203539233-.2349513198-.2452562022-.0638902712-.4719636161-.0948049185-.682183218-.0948049185-.4905124045,0-.8882808669.1112927304-1.1912444109.3297562383-.3029635439.2205244844-.4554758042.5070002164-.4554758042.8635491491,0,.3977684625.185487884.7295856773.5564636521.9954516444s1.0490370331.5997441584,2.0321228186.9954516444c1.0985004689.4389879923,1.8816715348.9212564908,2.3536351509,1.4426835426.4699026396.5234880283.7048539594,1.16239074.7048539594,1.9146471587,0,1.0675858215-.4678416631,1.9249520411-1.4035249893,2.5720986588-.9356833262.6492075942-2.1578423844.972780903-3.6623552217.972780903Z"/>
        <path class="cls-1" d="M132.9650613262,168.5215873647c-.2532424861.7386024494-.7174774404,1.3295874577-1.3928336738,1.751701205s-1.4140874938.6331062153-2.2370611682.6331062153c-1.2029662147,0-2.1738149522-.3376137112-2.9124174016-1.0129699445-.7387312604-.6753562334-1.1185949896-1.7094511869-1.1185949896-3.0812886627l.0845000361-5.5927173261h-1.772826214v-.7808524674l4.4318723184-3.4821485899h.7598562694l-.042250018,2.6591749155h3.5243986079v1.6038261419h-3.545523617l-.042250018,5.2972248219c0,.6964812424.1688712611,1.1818412056.5066137833,1.4773337098.3376137112.2954925042.8229736744.4432387563,1.4350836918.4432387563.6119812063,0,1.1607161966-.2111212791,1.6672011689-.6542312244l.6542312244.7386024494Z"/>
        <path class="cls-1" d="M154.5338243431,169.5135611113l-.063375027,1.1607161966h-6.2679447484l-.0845000361-1.1607161966,1.2873374397-.4432387563c.042250018-.2532424861.063375027-.6331062153.0845000361-1.1395911876.042121207-.5066137833.042121207-.9708487375.042121207-1.3929624848l-.063246216-2.0681899071c0-.9919737466-.1899962701-1.6673299799-.5909850083-2.0683187182-.4009887382-.4008599272-.8863487015-.5908561973-1.4562087008-.5908561973-.4008599272,0-.7808524674.084371225-1.1607161966.2532424861-.2953636931.1477462521-.5697311883.3376137112-.7597274584.5909850083.0633750271.3798637292.1054962341.8018486654.1054962341,1.2662124307l.021125009,2.5957998884c0,.5698599993.021125009,1.0974699806.042250018,1.6039549529.021125009.4853599633.042121207.8019774764.084371225.9497237285l1.3295874577.4432387563-.063246216,1.1607161966h-6.0359560824l-.084371225-1.1607161966,1.2873374397-.4432387563c.021125009-.2532424861.042250018-.6331062153.0633750271-1.1185949896.021125009-.5064849723.042121207-.9707199265.042121207-1.4139586828l-.042121207-2.3425574023c0-.8863487015-.1688712611-1.4984587188-.5487349903-1.857197439-.3587387202-.3587387202-.8231024855-.5276099813-1.3718374758-.5276099813-.3798637292,0-.7386024494.084371225-1.0973411696.2743674952-.3588675312.1898674591-.6753562334.4432387563-.8864775125.7808524674v3.693269869c0,.5487349903,0,1.0552199626.021125009,1.5617049349.021125009.4853599633.0633750271.8019774764.084371225.9497237285l1.3929624848.4432387563-.084371225,1.1607161966h-6.4158198116l-.084371225-1.1607161966,1.5828299439-.4432387563c0-.1266212431.021125009-.4221137472.042250018-.9074737105.042121207-.4854887743.063246216-1.0130987556.084371225-1.6039549529l.021125009-1.8994474571c0-.4853599633-.021125009-.9074737105-.0633750271-1.2873374397-.021125009-.3798637292-.084371225-.8019774764-.1477462521-1.2662124307l-1.6039549529-.3588675312v-1.1607161966l4.4952473455-1.1607161966.7176062514.4432387563-.1688712611,1.4772048988.0845000361.042250018c.5276099813-.6964812424,1.0973411696-1.2029662147,1.6883261779-1.5194549168.5908561973-.3166175132,1.2029662147-.4854887743,1.83607243-.4854887743.9918449355,0,1.878322448.3798637292,2.6380499065,1.1185949896.2321174771.2321174771.4432387563.5064849723.5698599993.8019774764,1.0973411696-1.2663412417,2.3214323933-1.9205724661,3.693269869-1.9205724661,1.2028374036,0,2.1736861412.4009887382,2.9334135996,1.1818412056.7598562694.7808524674,1.1608450077,1.8994474571,1.1608450077,3.3345311489l.042121207,2.6169248974c0,.5698599993,0,1.0974699806.021125009,1.6039549529.021125009.4853599633.042250018.8019774764.105496234.9497237285l1.5407087369.4432387563Z"/>
        <path class="cls-1" d="M165.4658876981,167.0021324479c-.4432387563.5064849723-.9074737105.8652236925-1.3718374758,1.0762161606-.4642349542.2111212791-.9708487375.3166175132-1.5617049349.3166175132-1.0552199626,0-1.8994474571-.3587387202-2.5325536724-1.0763449716-.5487349903-.6119812063-.8652236925-1.3928336738-.9074737105-2.3636824113h7.0278010179v-.6331062153c0-1.4773337098-.4221137472-2.6591749155-1.2452162327-3.566648626s-1.9838186821-1.3718374758-3.4400273829-1.3718374758c-1.0129699445,0-1.9415686641.2532424861-2.8067923565.7598562694-.8653525035.5064849723-1.5828299439,1.1818412057-2.1315649342,2.0681899071s-.8019774764,1.920443655-.8019774764,3.0812886627c0,1.0552199626.2321174771,2.0048148801.7174774404,2.8490423746.4854887743.8231024855,1.1397199986,1.4984587188,1.9838186821,1.9838186821.8653525035.4853599633,1.83607243.7174774404,2.9546674196.7174774404,1.0763449716,0,2.0470648981-.2532424861,2.8912923926-.7808524674.8652236925-.5064849723,1.5194549168-1.2873374397,2.0049436911-2.3003073843l-.7808524674-.7597274584ZM159.6833029129,161.5994113919c.4219849362-.5066137833.9284699085-.7598562694,1.5405799258-.7598562694.6119812063,0,1.0763449716.2111212791,1.4139586828.6753562334.3377425222.4432387563.5064849723,1.0552199626.5064849723,1.83607243v.2532424861h-4.0731335982c.042250018-.8863487015.2532424861-1.5405799258.6121100174-2.0048148801Z"/>
        <path class="cls-1" d="M167.3568336271,170.6655263354l-.0783171066-1.1603297635,1.5519152965-.4410489687c.0206097649-.1133537069.0453414828-.4142562744.0700732006-.9006467259.0267926944-.4863904515.0453414828-1.0222443387.0556463652-1.6075616617l.0309146473-1.9146471587c0-.5214270518-.0144268354-.9665979735-.0474024593-1.3334517887-.0309146473-.3647928386-.0824390596-.7687442306-.1566342132-1.2077322228l-1.6158055677-.3441830737v-1.1603297635l4.5032336294-1.16239074.7048539594.4389879922-.1401464013,1.5065738138.0783171066.0309146473c1.0346101977-1.3478786241,2.2732570678-2.0218179361,3.7180015869-2.0218179361,1.0861346099,0,1.9909032888.395707486,2.7122450601,1.1912444109s1.0820126569,1.9084642292,1.0820126569,3.3408428893v2.6030133061c0,.5647075581.0103048824,1.0964394924.0329756238,1.5931348263.0206097649.4966953339.0515244122.8140857133.092743942.9480491851l1.553976273.4410489687-.0783171066,1.1603297635h-6.3849051642l-.0618292947-1.1603297635,1.3952810833-.4410489687c.0309146473-.2493781552.0597683182-.6244758763.0865610126-1.1211712102.0247317179-.4966953339.0391585533-.964536997.0391585533-1.4035249893v-2.0712813719c0-.9501101616-.2060976489-1.6322933796-.6203539233-2.046549654-.4121952979-.4121952979-.8965247729-.6182929468-1.4509274486-.6182929468-.8367564547,0-1.5374884611.3544879562-2.1021960192,1.065524845v3.6870869396c0,.5544026757.0103048824,1.0758297275.0329756238,1.5684031084.0206097649.4905124045.0515244122.8058418074.092743942.9398052792l1.5065738138.4410489687-.0783171066,1.1603297635h-6.5250515655Z"/>
        <path class="cls-1" d="M191.2342767453,168.5215873647c-.2743674952.7386024494-.7386024494,1.3295874577-1.3928336738,1.751701205-.6753562334.4221137472-1.4350836918.6331062153-2.2581861772.6331062153-1.1818412057,0-2.1526899432-.3376137112-2.9124174016-1.0129699445-.7386024494-.6753562334-1.1184661786-1.7094511869-1.1184661786-3.0812886627l.084371225-5.5927173261h-1.751701205v-.7808524674l4.4108761204-3.4821485899h.7808524674l-.042250018,2.6591749155h3.5243986079v1.6038261419h-3.5455236169l-.042121207,5.2972248219c0,.6964812424.1687424501,1.1818412056.5064849723,1.4773337098.3376137112.2954925042.8019774764.4432387563,1.4139586828.4432387563s1.1818412056-.2111212791,1.6883261779-.6542312244l.6542312244.7386024494Z"/>
      </g>
      <g>
        <g id="uuid-da57362a-a9d9-4e04-923f-ab135271fbf7" data-name="Layer 1-2">
          <path class="cls-1" d="M88.0079478248,29.093605215l-25.2896824165,54.2197355109h-7.7946514378l22.0133095964-47.1746451918c.9850814562-2.162683144,2.569681108-3.9186297228,4.4969746138-5.1392315166,1.9271628064-1.2206017938,4.1970194669-1.9058588025,6.574049644-1.9058588025Z"/>
          <path class="cls-1" d="M88.7788129474,90.058737297l-6.2742251965,13.4692277394h-29.5943759549c-3.4573287841,0-5.7443018469-3.5909841615-4.2822577252-6.7239618677l3.1477646002-6.7452658716h7.7946514378l-3.1477646002,6.7238311683h7.2591759533l3.1264605963-6.7238311683h7.2807413561l-3.1478952996,6.7238311683h7.4519575837l3.1264605963-6.7238311683h7.2593066528Z"/>
          <path class="cls-1" d="M102.5264304309,29.093605215l-25.2896824165,54.2197355109h-7.2807413561l22.2275259301-47.6456858669c.9422120496-1.9914669164,2.4197688843-3.640370678,4.2185848697-4.7966683619,1.798685286-1.13499368,3.9187604222-1.7773812821,6.1243129728-1.7773812821Z"/>
          <path class="cls-1" d="M151.8210200595,103.5279650363h-18.4167753751c-2.2208705255,0-4.240941631-1.2856980326-5.1812645725-3.2976768239l-4.7537989553-10.1715509154,2.3554647743-6.745396571c1.1135589767,0,2.1199444368.6423876021,2.5911158113,1.6489037617l4.539713321,9.7432489475c.5995181955,1.263340501,1.8629893959,2.0770750302,3.2762421206,2.0770750302h5.139362216l-27.8593635244-59.7229648855-21.5851383279,46.2537371461h-7.2591759533l22.2702646373-47.7527286841c1.8415546926-3.9401951255,5.8031845214-6.4670068269,10.1715509154-6.4670068269l34.7118029126,74.4343598213Z"/>
        </g>
        <path class="cls-2" d="M125.824645931,83.3133407259l-2.3554647743,6.745396571H51.775718671l3.1478952996-6.745396571h44.3265743397l12.6126238036-27.0456289953c.6210835982-1.3490793142,2.5482464047-1.3490793142,3.1693300029,0l8.9936878288,19.2724122608h-5.3383576344c-1.2099539067,0-2.3101001417-.7016865174-2.8202916614-1.7988159854l-1.2791895261-2.7508033165c-.451516458-.9709530487-1.8316345121-.9718811244-2.2844564175-.0015362081l-5.7513010361,12.3243722444h19.2724122608Z"/>
      </g>
    </g>
  </g>
</svg>