<svg xmlns="http://www.w3.org/2000/svg" version="1.1" xmlns:xlink="http://www.w3.org/1999/xlink" width="199.9999999731" height="200"><svg xmlns="http://www.w3.org/2000/svg" version="1.1" xmlns:xlink="http://www.w3.org/1999/xlink" width="199.9999999731" height="200"><svg id="Layer_2" data-name="Layer 2" xmlns="http://www.w3.org/2000/svg" viewBox="0 0 199.9999999731 200">
  <defs>
    <style>
      .cls-1 {
        fill: #fff;
      }

      .cls-2 {
        fill: #4cb480;
      }

      .cls-3 {
        fill: #034d57;
      }
    </style>
  </defs>
  <g id="Layer_1-2" data-name="Layer 1">
    <rect class="cls-3" width="199.9999999731" height="200" rx="28.7723174027" ry="28.7723174027"></rect>
    <g>
      <g id="uuid-52ae4c30-8f40-4fda-ad50-ebf3ff8c70ac" data-name="Layer 1-2">
        <path class="cls-1" d="M79.4371894656,36.1835815965l-43.3642999887,92.9707553178h-13.365513955L60.453668471,48.2638206843c1.6891223495-3.7083597608,4.4062404821-6.7192870217,7.7109768713-8.8122568534,3.3045122785-2.0929698318,7.1966428137-3.2679822344,11.2725441233-3.2679822344Z"></path>
        <path class="cls-1" d="M80.758994377,140.7206901659l-10.7584341764,23.0957282376H19.2549883206c-5.9282928147,0-9.8497729-6.1574721212-7.34280113-11.5295990967l5.3974821103-11.5661291409h13.365513955l-5.3974821103,11.529374986h12.4473324152l5.3609520661-11.529374986h12.4843106807l-5.397706221,11.529374986h12.7778956984l5.3609520661-11.529374986h12.4475565259Z"></path>
        <path class="cls-1" d="M104.3320784066,36.1835815965l-43.3642999887,92.9707553178h-12.4843106808l38.1136103873-81.6982111946c1.6156140397-3.4147747432,4.1491855086-6.2421553404,7.2336210793-8.2248627075,3.08421146-1.9461773229,6.7195111324-3.0476814158,10.5013792029-3.0476814158Z"></path>
        <path class="cls-1" d="M188.8576701984,163.8164184035h-31.5793041225c-3.8081338515,0-7.27195629-2.2045905624-8.88433107-5.6545370837l-8.1513543977-17.4411911539,4.038923044-11.5663532516c1.9094231681,0,3.6350755617,1.1015040928,4.4429946369,2.8273805972l7.7842610704,16.7067803884c1.0279957831,2.1662540308,3.1944739246,3.561567252,5.6177829288,3.561567252h8.8124809641l-47.7705404708-102.4071604721-37.0121062944,79.3114322345h-12.4473324152l38.1868945863-81.8817578582c3.1577197697-6.7562652873,9.9507392119-11.0889974596,17.4411911539-11.0889974596l59.5204403861,127.632836807Z"></path>
      </g>
      <path class="cls-2" d="M144.2816036522,129.1543369143l-4.038923044,11.5663532516H17.3096693009l5.397706221-11.5663532516h76.0069199559l21.6269067067-46.3752272496c1.0649740487-2.3132706503,4.3694863272-2.3132706503,5.4344603759,0l15.4215055212,33.0464674495h-9.1536990498c-2.0747118655,0-3.9611361622-1.203184134-4.835963206-3.0844355707l-2.1934304052-4.716811317c-.7742167266-1.6648963236-3.1407096042-1.666487698-3.9171647856-.002634141l-9.8617744322,21.1326408287h33.0464674495Z"></path>
    </g>
  </g>
</svg></svg><style>@media (prefers-color-scheme: light) { :root { filter: none; } }
@media (prefers-color-scheme: dark) { :root { filter: none; } }
</style></svg>