<svg width="126" height="55" viewBox="0 0 126 55" fill="none" xmlns="http://www.w3.org/2000/svg" id="logo-danfoss-2025">
<g clip-path="url(#clip0_22460_427)">
<path d="M22.4784 55C14.6102 55 10.6761 55 7.67091 53.4686C5.0274 52.1214 2.87818 49.9719 1.53129 47.3281C0 44.3224 0 40.3878 0 32.5185V22.4815C0 14.6122 0 10.6776 1.53123 7.67195C2.87818 5.02808 5.0274 2.87857 7.67085 1.5315C10.6761 0 14.6102 0 22.4784 0H103.522C111.39 0 115.324 0 118.329 1.53144C120.973 2.87857 123.122 5.02809 124.469 7.67189C126 10.6775 126 14.6122 126 22.4814V32.5185C126 40.3877 126 44.3223 124.469 47.328C123.122 49.9719 120.973 52.1214 118.329 53.4684C115.324 54.9999 111.39 54.9999 103.522 54.9999L22.4784 55Z" fill="#ED071B"/>
<path d="M16.6986 25.6797L20.6497 18.2737C26.0242 16.2586 31.943 14.7931 38.0554 14.7931C39.8085 14.7931 41.5773 14.9135 43.3514 15.1752L44.1625 13.6782C45.8162 13.4218 47.4647 13.2072 49.1184 13.024L46.9047 16.4156C49.0556 17.3577 51.0442 19.6973 51.0442 22.1886C51.0442 25.2557 49.6103 27.9616 47.9357 30.4792L50.3377 30.1913C51.5571 28.2181 54.4301 25.9204 56.5705 25.9204C57.2822 25.9204 57.9259 26.1769 58.3969 26.7788L59.0301 25.8733L62.0602 25.4179C59.6738 29.8354 58.287 31.3532 58.287 31.9551C58.287 32.0651 58.3288 32.1698 58.4544 32.1698C59.297 32.1698 63.6772 28.171 65.399 24.8684L68.272 24.5544L66.6655 27.4121L68.6384 25.7058C69.6798 24.8056 70.6114 24.0048 71.4957 24.0048C72.0557 24.0048 72.8145 24.2508 72.8145 25.0829C72.8145 26.7683 70.0514 29.94 70.0514 30.5838C70.0514 30.678 70.1089 30.7041 70.1717 30.7041C70.8834 30.7041 74.5886 27.9354 76.394 25.13L73.6937 25.5592L74.6409 23.8058L77.3151 23.4604C80.0102 18.4882 86.8238 9.26075 89.6236 9.26075C90.2411 9.26075 90.6597 9.72656 90.6597 10.4332C90.6597 12.8774 86.0702 18.3312 80.3189 22.445L79.8897 23.1987L85.7196 22.5497C85.8504 22.5393 85.9289 22.6178 85.9289 22.7172C85.9289 22.78 85.8975 22.8481 85.8295 22.9057C84.3014 24.1932 81.5435 27.0876 81.5435 28.731C81.5435 29.4062 82.0616 29.7987 82.6006 29.7987C84.2595 29.7987 86.604 26.2397 86.8186 25.5069C86.3476 25.3604 86.1435 24.8474 86.1435 24.2246C86.1435 22.9528 87.007 21.2308 88.2839 21.2308C88.7862 21.2308 89.4561 21.4663 89.4561 22.3614C89.4561 23.1778 88.9694 24.2246 88.713 24.7323C90.7592 24.4811 92.9623 22.7487 94.0508 21.5134C94.0508 19.4983 95.1864 17.3158 96.6099 17.3158C97.1594 17.3158 97.6251 17.5304 97.6251 18.1637C97.6251 18.9802 96.657 20.3829 95.4429 21.6496C95.4533 22.0212 95.4691 23.204 95.4481 23.6228C97.3635 22.958 99.4882 22.084 101.288 21.1733C101.315 19.1897 102.215 16.8239 103.753 16.8239C104.324 16.8239 104.789 17.0386 104.789 17.7242C104.789 18.7344 103.769 20.383 102.56 21.3513C102.607 22.1521 102.686 24.8633 102.686 25.4337C102.686 28.2077 100.823 30.3013 98.0491 30.3013C96.9763 30.3013 95.8826 29.7412 95.8826 28.6212C95.8826 26.2816 98.9702 24.6224 101.163 23.6646C101.194 23.2355 101.236 22.5341 101.236 22.1782C100.509 22.6179 97.531 23.7903 95.4848 24.5492C95.4011 28.3752 93.3392 30.7305 90.6179 30.7305C89.3777 30.7305 88.5246 30.2699 88.5246 29.0399C88.5246 26.5539 91.6122 25.1826 93.8573 24.2143C93.9619 23.8008 94.0247 23.0733 94.0038 22.8116C92.3396 24.2457 90.4138 25.7164 87.9646 25.774C86.7296 28.2234 83.8252 31.4423 81.2661 31.4423C80.0363 31.4423 78.8327 30.6782 78.8327 29.3592C78.8327 27.2709 81.4859 24.4812 81.8261 24.2143C80.9103 24.3033 79.9997 24.4498 79.0839 24.6644L74.3112 33.5097C85.5678 32.3478 96.8245 31.6255 105.632 31.6098L103.847 33.2742C104.69 33.8762 105.59 34.4624 106.495 34.97C97.8711 34.499 85.3376 34.9334 73.0919 35.7708L70.4752 40.6227L67.2359 40.8582L70.0252 35.9906C60.2339 36.7234 50.8559 37.6917 44.0841 38.6495L44.6179 37.7179C52.3265 36.2366 61.7148 34.8863 71.2603 33.8343L73.6466 29.6681C72.3697 30.7306 69.863 32.7666 68.1831 32.7666C67.5184 32.7666 66.9795 32.4578 66.9795 31.7513C66.9795 30.2125 69.4025 27.2501 69.4025 26.6587C69.4025 26.6011 69.3868 26.5645 69.3292 26.5645C68.7641 26.5645 64.6455 30.8354 63.1122 33.1959C62.2644 33.2587 61.4166 33.3477 60.5688 33.4628L61.8667 30.9558C60.4903 32.2276 58.1563 34.0438 56.7591 34.0438C56.3038 34.0438 55.7177 33.8135 55.4194 32.9866C54.3675 33.9287 52.63 35.0278 51.1072 35.0278C50.1967 35.0278 49.3332 34.6352 49.3332 33.1698C49.3332 32.4684 49.532 31.7513 49.6419 31.4897L47.0881 31.767C38.9871 41.1462 29.0911 44.4593 23.6747 44.4593C21.6704 44.4593 19.5143 44.0354 19.5143 42.1774C19.5143 39.3197 25.5796 35.8757 33.6282 33.3687L41.3472 18.8759C40.353 18.7241 39.3324 18.6561 38.3068 18.6561C30.7552 18.6561 21.5396 22.6601 16.6988 25.6801L16.6986 25.6797ZM24.6531 40.8842C24.6531 41.8107 25.8777 41.9833 26.8877 41.9833C30.6609 41.9833 38.5682 39.3821 44.3143 32.2587C39.259 33.0595 36.2446 34.1324 35.1457 34.5302L32.1732 39.0942C31.9325 39.4606 31.6342 39.8165 31.1527 39.8165C30.509 39.8165 30.4829 39.3036 30.7445 38.8116L32.5291 35.441C28.8711 36.5872 24.6531 39.2408 24.6531 40.8842ZM44.8115 19.6817L36.5273 32.4472C39.3689 31.683 43.791 30.9712 45.3139 30.809C46.0936 29.5528 47.9201 26.5224 47.9201 23.8478C47.9201 22.1102 47.1507 20.5243 44.8115 19.6817ZM53.6713 29.5528C53.0328 30.4112 52.3525 31.704 52.3525 32.5204C52.3525 32.9287 52.5462 33.2479 52.9491 33.2479C53.8021 33.2479 55.325 31.8923 55.8902 31.1648C56.738 30.0709 57.4549 28.663 57.4549 27.8831C57.4549 27.4173 57.1933 27.2551 56.7798 27.2551C55.6966 27.2551 54.1998 28.8409 53.6713 29.5528ZM81.5801 20.0114C83.2233 19.0065 86.7819 15.6202 87.8233 13.469C88.017 13.066 88.1216 12.7048 88.1216 12.4275C88.1216 12.1292 87.9907 11.8779 87.6924 11.8779C87.2424 11.8779 86.4888 12.4065 85.6515 13.4062C84.2123 15.1229 82.2865 18.3575 81.5801 20.0114ZM93.5327 25.35C92.7686 25.5594 90.3352 26.9673 90.3352 28.0036C90.3352 28.2443 90.4921 28.4694 90.8062 28.4694C92.0307 28.4694 93.271 26.5643 93.5327 25.35ZM100.87 24.9888C99.7498 25.2452 97.4995 26.6584 97.4995 27.7157C97.4995 27.9355 97.6408 28.1711 97.9914 28.1711C99.3416 28.1711 100.498 26.4543 100.87 24.9888Z" fill="white"/>
</g>
<defs>
<clipPath id="clip0_22460_427">
<rect width="126" height="55" fill="white"/>
</clipPath>
</defs>
</svg>
