<svg xmlns="http://www.w3.org/2000/svg" width="100.131" height="37.985" viewBox="0 0 100.131 37.985">
  <g id="NG-logos" transform="translate(0 -0.01)">
    <path id="Path_1377" data-name="Path 1377" d="M51.91,23.01a10.8,10.8,0,0,0-3.87.71c-.98.43-1.32.69-1.32,1.91v9.82h3.14V26.2a5.822,5.822,0,0,1,2.11-.36,1.674,1.674,0,0,1,1.81,1.76v7.85h3.08V27.97c-.01-3.39-1.58-4.96-4.95-4.96" fill="#2d2a26"/>
    <path id="Path_1378" data-name="Path 1378" d="M82.76,23.02a8.026,8.026,0,0,0-3.51.92,4.987,4.987,0,0,0-3.21-.92,10.165,10.165,0,0,0-3.87.8c-.81.39-1.08.71-1.08,1.82v9.82h3.14V26.21a5.438,5.438,0,0,1,1.84-.36c1.07,0,1.6.59,1.6,1.76v7.85h3.08V27.98a7.987,7.987,0,0,0-.16-1.7,5.3,5.3,0,0,1,1.99-.42c1.06,0,1.6.59,1.6,1.76v7.85h3.08V27.66c0-3.17-1.43-4.64-4.5-4.64" fill="#2d2a26"/>
    <path id="Path_1379" data-name="Path 1379" d="M98.82,32.83V26.92c0-2.44-1.74-3.9-4.65-3.9a14.2,14.2,0,0,0-3.91.66l-.1.03.47,2.61.12-.03a14.081,14.081,0,0,1,3.28-.56c1.71,0,1.89,1.11,1.89,1.59,0,.35-.01.68-.02.85H93.49c-2.79,0-4.51,1.43-4.51,3.73,0,2.58,2.13,3.73,4.24,3.73a7.429,7.429,0,0,0,2.75-.52,3.116,3.116,0,0,1,.99-.25,2.178,2.178,0,0,1,1.35.52c.16.1.36.23.59.37l.1.06,1.13-2.16ZM95.9,30.36V32.7a1.917,1.917,0,0,0-.53.17,3.8,3.8,0,0,1-1.66.34c-1.17,0-1.68-.4-1.68-1.34,0-1.12,1.01-1.51,1.87-1.51Z" fill="#2d2a26"/>
    <path id="Path_1380" data-name="Path 1380" d="M68.3,26.92c0-2.44-1.74-3.9-4.65-3.9a14.2,14.2,0,0,0-3.91.66l-.1.03.47,2.61.12-.03a13.992,13.992,0,0,1,3.28-.56c1.71,0,1.89,1.11,1.89,1.59,0,.35-.01.68-.02.85H62.96c-2.78,0-4.51,1.43-4.51,3.73,0,2.58,2.13,3.73,4.24,3.73a7.538,7.538,0,0,0,2.76-.52,3.054,3.054,0,0,1,.99-.25,2.178,2.178,0,0,1,1.35.52c.17.1.36.23.59.37l.11.06,1.13-2.16-1.31-.82Zm-2.92,3.43v2.34a1.817,1.817,0,0,0-.53.17,3.744,3.744,0,0,1-1.65.34c-1.17,0-1.67-.4-1.67-1.34,0-1.12,1.01-1.51,1.86-1.51Z" fill="#2d2a26"/>
    <path id="Path_1381" data-name="Path 1381" d="M54.24,14.72h0l-.27-.01c-.15,0-.3-.01-.44-.01a4.367,4.367,0,0,1-2-.67,1.966,1.966,0,0,1-1.01-1.86,1.834,1.834,0,0,1,.76-1.54,2.955,2.955,0,0,1,1.83-.56,7.912,7.912,0,0,1,1.97.25.4.4,0,0,0,.13.02l.19-.04.68-2.29-.22-.07a11.144,11.144,0,0,0-3.17-.45A5.48,5.48,0,0,0,49.1,8.67a4.649,4.649,0,0,0-1.52,3.55,5.256,5.256,0,0,0,1.01,3.08c-.71.17-1.3.35-1.75.49l-.22.07.77,2.7.23-.08a19.224,19.224,0,0,1,5.76-.98,11.669,11.669,0,0,1,2.85.33l.23.06.69-2.72-.23-.06a15.038,15.038,0,0,0-2.68-.39" fill="#2d2a26"/>
    <path id="Path_1382" data-name="Path 1382" d="M95.55,13.32c0,.82-.28,1.9-2.74,1.92h-.16c-1.73,0-1.95-.67-1.95-1.25,0-3.55-2.14-5.93-5.33-5.93-3.24,0-5.22,2.15-5.43,5.91-.09,1.06-.95,1.18-2.25,1.25l-.22.01H65.64c-2.07,0-2.49-.8-2.49-1.99V2.45l-3.46.39V13.3c0,3.16,2.03,5.02,5.59,5.13l13.05.01a6.349,6.349,0,0,0,2.53-.46,4.965,4.965,0,0,0,4.5,2.49h0a4.8,4.8,0,0,0,4.53-2.6,7.769,7.769,0,0,0,2.68.55v.01l.22-.01h.01l.24.01v-.01l.46-.01c3.45-.23,5.51-2.09,5.51-4.97V7.45l-3.46.39Zm-8.17.96c0,2.22-.65,3.3-1.99,3.3-.85,0-1.99-.35-1.99-3.38,0-3.1,1.14-3.45,1.99-3.45s1.99.36,1.99,3.53" fill="#2d2a26"/>
    <path id="Path_1383" data-name="Path 1383" d="M97.08,6.29a1.94,1.94,0,1,0-1.94-1.94,1.942,1.942,0,0,0,1.94,1.94" fill="#2d2a26"/>
    <path id="Path_1384" data-name="Path 1384" d="M33.1,2.38s4.41-.63,5.57,3.64c.37,1.35.17,4.67-3.92,6.67,1.08-4.72.22-8.08-1.65-10.31" fill="#e62a36"/>
    <path id="Path_1385" data-name="Path 1385" d="M19.57,25.98c4.14,3.76,11.15,4.91,14.42,2.82a11.059,11.059,0,0,0,4.84-7.16c-1.29,1.24-6.74,3.44-12.02,2.29a15.16,15.16,0,0,1-7.24,2.05" fill="#e62a36"/>
    <path id="Path_1386" data-name="Path 1386" d="M29.29,21.59c3.58.72,8.06-1.15,9.43-3.32,1.79-2.82.94-7.56.94-7.56a8.513,8.513,0,0,1-6,5.57,12.347,12.347,0,0,1-4.37,5.31" fill="#e62a36"/>
    <path id="Path_1387" data-name="Path 1387" d="M29.31,7.23c0,3.99-2.59,7.23-5.78,7.23s-5.77-3.24-5.77-7.23S20.35,0,23.54.01c3.19-.01,5.78,3.23,5.77,7.22" fill="#e62a36"/>
    <path id="Path_1388" data-name="Path 1388" d="M9.18,2.91S3.93,7.74,5.79,16.43s10,12.05,15.5,14.06a46.272,46.272,0,0,0,10.86,2.54s-6.84,8.17-20.79,3.55S-.24,14.4.88,10.59c0,0,2.23-10.01,8.3-7.68" fill="#e62a36"/>
  </g>
</svg>
