<svg xmlns="http://www.w3.org/2000/svg" viewBox="0 0 500 650" width="500" height="650">
  <path d="M411.8,354.5 L391.4,394.1 L366.5,391.1 L355.2,404.9 L346.4,434.2 L353.1,472.9 L347.9,480.0 L322.8,479.8 L288.6,501.4 L283.3,529.6 L270.8,541.8 L236.7,541.3 L215.3,555.9 L215.6,579.2 L189.1,595.3 L158.9,589.9 L122.3,609.4 L97.1,612.6 L79.2,572.2 L36.4,476.8 L200.5,418.9 L237.0,303.2 L211.9,262.2 L213.4,239.0 L229.3,215.0 L229.5,191.4 L254.2,180.0 L244.5,171.9 L249.0,134.3 L277.0,134.0 L301.5,173.5 L332.0,194.5 L372.2,202.1 L404.6,212.6 L429.3,245.8 L444.0,265.0 L463.6,272.4 L463.5,285.3 L443.6,319.7 L434.8,336.0 L411.8,354.5 Z" fill="#4CB480" fill-opacity="0.25" stroke="rgba(255,255,255,0.3)" stroke-width="1.5"/>
  <path d="M276.7,77.8 L269.5,88.3 L259.1,68.6 L275.1,48.9 L281.8,53.9 L276.7,77.8 Z" fill="#4CB480" fill-opacity="0.25" stroke="rgba(255,255,255,0.3)" stroke-width="1.5"/>
  <path d="M405.7,404.5 L409.5,410.2 L413.9,413.1 L416.6,408.5 L415.0,398.7 L411.2,392.9 L407.3,395.8 L405.7,404.5 Z" fill="#4CB480" fill-opacity="0.25" stroke="rgba(255,255,255,0.3)" stroke-width="1.5"/>
</svg>