<svg width="717" height="153" viewBox="0 0 717 153" fill="none" xmlns="http://www.w3.org/2000/svg">
<path d="M545.889 11.9242V140.655H572.25V86.6513H595.084V140.655H621.331V11.9242H595.104V63.2056H572.231V11.9242H545.889Z" fill="#ED1C24"/>
<path d="M342.549 11.9242V140.655H366.687V58.8156L380.874 140.655H396.921L411.339 58.8156V140.655H435.572V11.9242H399.663L389.041 73.807L378.439 11.9242H342.549Z" fill="#ED1C24"/>
<path d="M190.955 11.9242L207.021 69.4361L223.068 11.9242H249.296L221.017 98.4221V140.655H193.025V98.4221L164.746 11.9242H190.955Z" fill="#ED1C24"/>
<path d="M304.972 11.9242H270.078L247.167 140.655H273.222L277.613 110.02H297.303L301.693 140.655H327.901L304.952 11.9242H304.972ZM287.467 41.0252L293.986 86.6513H280.968L287.487 41.0252H287.467Z" fill="#ED1C24"/>
<path d="M508.139 11.9242H473.245L450.335 140.655H476.39L480.78 110.02H500.489L504.879 140.655H531.088L508.139 11.9242ZM490.635 41.0252L497.153 86.6513H484.135L490.654 41.0252H490.635Z" fill="#ED1C24"/>
<path d="M694.032 11.9242H659.158L636.247 140.655H662.302L666.692 110.02H686.401L690.792 140.655H717L694.051 11.9242H694.032ZM676.547 41.0252L683.065 86.6513H670.048L676.566 41.0252H676.547Z" fill="#ED1C24"/>
<path d="M76.0943 0C34.0689 0 0 34.0662 0 76.0882C0 118.11 34.0689 152.176 76.0943 152.176C118.12 152.176 152.189 118.11 152.189 76.0882C152.189 34.0662 118.1 0 76.0943 0ZM138.174 113.586L127.725 111.266C116.471 127.734 97.5479 138.565 76.0751 138.565C54.6023 138.565 35.6985 127.753 24.4253 111.266L13.9957 113.567C13.4013 113.643 12.7687 113.356 12.4427 112.8C12.1168 112.244 12.1743 111.573 12.5386 111.094L19.7665 103.195C15.7979 94.9905 13.5739 85.7886 13.5739 76.0691C13.5739 43.1339 39.0728 16.1417 71.4163 13.7453L74.6372 3.54657C74.8672 2.97145 75.4232 2.58803 76.0751 2.58803C76.7269 2.58803 77.2638 2.97145 77.513 3.5274L80.7339 13.7262C113.077 16.1033 138.576 43.0956 138.576 76.0499C138.576 85.7694 136.352 94.9713 132.384 103.176L139.592 111.055C139.957 111.535 140.014 112.225 139.707 112.781C139.382 113.337 138.768 113.624 138.174 113.548V113.586Z" fill="#ED1C24"/>
<path d="M138.25 111.515L122.529 94.7412C120.344 95.6806 117.755 95.6039 115.531 94.3386C113.307 93.0542 111.965 90.8687 111.678 88.5107C111.256 85.0025 109.224 81.686 105.907 79.7689L99.5418 76.0882L127.936 59.6973L124.811 54.272L93.2917 72.4649L87.8084 69.3018V62.9946L119.327 44.8017L116.202 39.3956L87.8084 55.7865V48.425C87.8084 44.5908 85.9679 41.1785 83.1112 39.0314H83.1304C81.2324 37.6127 80.0054 35.3506 80.0054 32.7817C80.0054 30.2129 81.2515 27.9316 83.1496 26.5129L76.4777 4.52422C76.4393 4.35168 76.3051 4.14081 76.0942 4.14081C75.8833 4.14081 75.7108 4.31334 75.7108 4.52422L69.0389 26.5129C70.9561 27.9316 72.1831 30.2129 72.1831 32.7817C72.1831 35.3506 70.9561 37.6127 69.0581 39.0314H69.0964C66.2398 41.1593 64.3801 44.5717 64.3801 48.425V55.7673L36.0053 39.3764L32.8802 44.8017L64.3992 62.9946V69.3018L58.9352 72.4649L27.4161 54.272L24.2911 59.6781L52.685 76.069L46.2815 79.7689H46.3199C43.0031 81.6668 40.9709 84.9642 40.5491 88.5299V88.4916C40.2615 90.8496 38.9003 93.0542 36.6955 94.3386C34.4715 95.623 31.8833 95.6806 29.6785 94.7412L13.9765 111.515C13.8423 111.631 13.7272 111.861 13.8231 112.052C13.919 112.244 14.1682 112.301 14.3599 112.186L36.7338 106.972C37.0214 104.614 38.3634 102.39 40.5874 101.106C42.7922 99.8214 45.3805 99.7639 47.5661 100.684C50.8445 102.064 54.7173 101.969 58.0341 100.051L64.3992 96.3707V129.152H70.6493V92.7666L76.1134 89.6035L81.5775 92.7475V129.133H87.8276V96.3515L94.1928 100.032C97.5095 101.949 101.401 102.064 104.68 100.646H104.661C106.846 99.7256 109.435 99.8022 111.659 101.087C113.883 102.371 115.244 104.576 115.512 106.953L137.886 112.167C138.039 112.225 138.308 112.225 138.423 112.033C138.538 111.841 138.48 111.611 138.289 111.496L138.25 111.515ZM64.3609 89.1625L54.8707 94.6453C52.2441 96.1598 48.9081 95.2588 47.3935 92.6516C45.8789 90.0252 46.78 86.6895 49.3874 85.1751L58.8776 79.6923L64.3417 82.8554V89.1625H64.3609ZM81.5583 79.2322L76.0942 82.3953L70.6302 79.2322V72.925L76.0942 69.7619L81.5583 72.925V79.2322ZM81.5583 59.3906L76.0942 62.5345L70.6302 59.3714V48.425C70.6302 45.4152 73.0842 42.9613 76.0942 42.9613C79.1043 42.9613 81.5583 45.4152 81.5583 48.425V59.3906ZM104.776 92.6324C103.261 95.2396 99.9252 96.1407 97.2986 94.6262L87.8084 89.1434V82.8362L93.2917 79.6731L102.782 85.1559C105.408 86.6704 106.29 90.006 104.776 92.6324Z" fill="#ED1C24"/>
</svg>
